<?xml version="1.0" encoding="UTF-8"?> <!-- Generator: Adobe Illustrator 21.0.2, SVG Export Plug-In . SVG Version: 6.00 Build 0) --> <svg xmlns="http://www.w3.org/2000/svg" xmlns:xlink="http://www.w3.org/1999/xlink" id="Layer_1" x="0px" y="0px" viewBox="0 0 91.8 23.8" style="enable-background:new 0 0 91.8 23.8;" xml:space="preserve"> <style type="text/css"> .st0{fill:#E5A33E;} </style> <g> <g> <path class="st0" d="M18.9,16.3h-1.3L19,7.8h4.2l-1.5,8.5h-1.4L21.7,9h-1.5L18.9,16.3z"></path> </g> <g> <path class="st0" d="M23.6,9.8c0.2-1.4,1.1-2.1,2.4-2.1s1.9,0.8,1.7,2.1l-0.8,4.4c-0.2,1.4-1.1,2.1-2.4,2.1s-1.9-0.8-1.7-2.1 L23.6,9.8z M24.2,14.3c-0.1,0.6,0.1,0.8,0.5,0.8s0.7-0.2,0.8-0.8l0.8-4.6c0.1-0.6-0.1-0.8-0.5-0.8S25.1,9.1,25,9.7L24.2,14.3z"></path> </g> <g> <path class="st0" d="M27.3,15.1c0.6,0,0.8-0.1,1-0.9l1.4-6.4h3.8L32,16.3h-1.4L31.8,9h-1.2l-1.1,5.1c-0.3,1.6-1,2.2-2.3,2.2H27 L27.3,15.1z"></path> </g> <g> <path class="st0" d="M36.2,14.1c-0.6,1.5-1.2,2.3-3.1,2.2l0.2-1.2c0.7,0,1.1-0.1,1.3-0.7v-0.1L34,7.8h1.3l0.2,2.9l0.1,2l0.7-2 l1.1-2.9h1.4L36.2,14.1z"></path> </g> <g> <path class="st0" d="M43.5,7.8L42,16.3h-1.3l0.6-3.4c-0.3,0.3-0.9,0.5-1.2,0.5c-1.1,0-1.5-0.8-1.3-2l0.6-3.6h1.3L40,11.3 c-0.1,0.6,0.2,0.8,0.6,0.8s0.7-0.3,0.8-0.9L42,7.7L43.5,7.8L43.5,7.8z"></path> </g> <g> <path class="st0" d="M44.2,16.3h-1.4l1.5-8.5h1.2l-0.9,5.4l0.8-1.9L47,7.8h1.5L47,16.3h-1.2l1.1-6L46,12.4L44.2,16.3z"></path> </g> <g> <path class="st0" d="M49.1,7.8h4.1L53,9h-1.4l-1.3,7.3H49L50.3,9h-1.4L49.1,7.8z"></path> </g> <g> <path class="st0" d="M52.3,16.3l1.5-8.5h1.3L54.6,11h0.6c1.3,0,1.9,0.7,1.6,2.1l-0.2,1.1c-0.2,1.4-1,2.1-2.4,2.1 C54.2,16.3,52.3,16.3,52.3,16.3z M54.5,15.1c0.4,0,0.7-0.2,0.8-0.8l0.2-1.3c0.1-0.6-0.1-0.8-0.5-0.8h-0.6l-0.5,2.9H54.5z"></path> </g> <g> <path class="st0" d="M61.3,12.9l-0.6,0.8l-0.5,2.6H59l1.5-8.5h1.3l-0.7,3.7l2.4-3.7h1.3l-2.5,3.8l1,4.7H62L61.3,12.9z"></path> </g> <g> <path class="st0" d="M64.8,9.8c0.2-1.4,1.1-2.1,2.4-2.1s1.9,0.8,1.7,2.1l-0.8,4.4c-0.2,1.4-1.1,2.1-2.4,2.1s-1.9-0.8-1.7-2.1 L64.8,9.8z M65.4,14.3c-0.1,0.6,0.1,0.8,0.5,0.8s0.7-0.2,0.8-0.8l0.8-4.6c0.1-0.6-0.1-0.8-0.5-0.8s-0.7,0.2-0.8,0.8L65.4,14.3z"></path> </g> <g> <path class="st0" d="M72.3,17.4l0.2-1.1h-2.9l-0.2,1.1h-1.3l0.4-2.3H69c0.3-0.3,0.4-0.6,0.5-1.1L71,7.8h3.7l-1.3,7.3H74l-0.4,2.3 H72.3z M70.9,14c-0.2,0.6-0.3,0.9-0.6,1.1H72L73.1,9H72L70.9,14z"></path> </g> </g> <g> <path class="st0" d="M80.2,23.6H11.7c-6.3,0-11.5-5.2-11.5-11.5v-0.5c0-6.3,5.2-11.5,11.5-11.5h68.5c6.3,0,11.5,5.2,11.5,11.5v0.5 C91.7,18.5,86.5,23.6,80.2,23.6z M11.7,0.6c-6.1,0-11,4.9-11,11v0.5c0,6.1,4.9,11,11,11h68.5c6.1,0,11-4.9,11-11v-0.5 c0-6.1-4.9-11-11-11C80.2,0.6,11.7,0.6,11.7,0.6z"></path> </g> </svg> 