<?xml version="1.0" encoding="UTF-8"?> <!-- Generator: Adobe Illustrator 21.0.2, SVG Export Plug-In . SVG Version: 6.00 Build 0) --> <svg xmlns="http://www.w3.org/2000/svg" xmlns:xlink="http://www.w3.org/1999/xlink" id="Layer_1" x="0px" y="0px" viewBox="0 0 507.2 456.7" style="enable-background:new 0 0 507.2 456.7;" xml:space="preserve"> <style type="text/css"> .st0{fill:#E5A33E;} .st1{fill:#FFFFFF;} .st2{clip-path:url(#SVGID_2_);} </style> <path class="st0" d="M4.9,41.6c4.6,0,5.7-2.2,6.6-4.8h4v38.3h-6V45.9H4.9V41.6z"></path> <path class="st0" d="M28.6,69.2V75h-5.8v-5.8H28.6z"></path> <path class="st1" d="M57.8,59.8l-1.9,3.5v11.8h-6V36.8h6v16.7l7.9-16.7h6l-8.4,17.1l8.4,21.2h-6.2L57.8,59.8z"></path> <path class="st1" d="M85.9,65.3c-1.4,6.9-3.8,10.3-12.1,9.8v-5.4c3.1,0.2,4.8-0.3,5.3-3.1l0.1-0.3l-8.3-29.5h6l3.1,13l1.9,9l1.4-8.9 L86,36.8h6.3L85.9,65.3z"></path> <path class="st1" d="M100.9,75h-6V36.8h19v38.3h-6.1V42.2H101L100.9,75L100.9,75z"></path> <path class="st1" d="M124.4,75h-6.2V36.8h5.4V61l2.2-8.4l4.9-15.8h6.6v38.3h-5.4v-27l-2.5,9.4L124.4,75z"></path> <path class="st1" d="M158.8,41.8c-1.9,0-3.1,1-3.1,3.8v4.1H150V46c0-6.1,3.1-9.6,9-9.6s9,3.5,9,9.6c0,12-12,16.5-12,22.8 c0,0.3,0,0.5,0.1,0.8h11.4v5.5H150v-4.7c0-11.3,11.9-13.1,11.9-24.2C161.9,42.7,160.7,41.8,158.8,41.8z"></path> <path class="st1" d="M191.7,36.8l-6.3,18.6l6.7,19.7h-6.3L180.9,60l-5,15.1h-5.6l6.7-19.7l-6.3-18.6h6.2l4.5,14.1l4.6-14.1 C186,36.8,191.7,36.8,191.7,36.8z"></path> <path class="st1" d="M56.4,139h-6.2v-38.2h5.4V125l2.2-8.4l4.9-15.8h6.6v38.3h-5.4v-27l-2.5,9.4L56.4,139z"></path> <path class="st1" d="M71.9,133.6c2.7,0,3.6-0.4,3.7-3.9l1-28.9h17v38.3h-6.1v-32.9h-5.2l-0.7,23.2c-0.2,7-2.7,9.7-8.7,9.7H72v-5.5 H71.9z"></path> <path class="st1" d="M104.4,139h-6.2v-38.2h5.4V125l2.2-8.4l4.9-15.8h6.6v38.3h-5.4v-27l-2.5,9.4L104.4,139z"></path> <path class="st1" d="M141.6,110.2c0-3.4-1.2-4.4-3.1-4.4s-3.1,1-3.1,3.8v2.5h-5.7V110c0-6.1,3.1-9.6,9-9.6s9,3.5,9,9.6v1 c0,4.1-1.3,6.7-4.2,7.9c3,1.3,4.2,4.2,4.2,8v3c0,6.1-3.1,9.6-9,9.6s-9-3.5-9-9.6v-3.2h5.7v3.6c0,2.7,1.2,3.8,3.1,3.8 s3.1-0.9,3.1-4.3v-3c0-3.6-1.2-4.9-3.9-4.9h-2v-5.5h2.3c2.2,0,3.6-1,3.6-4L141.6,110.2L141.6,110.2z"></path> <path class="st1" d="M171.7,100.8l-6.3,18.6l6.7,19.7h-6.3l-4.9-15.1l-5,15.1h-5.6l6.7-19.7l-6.3-18.6h6.2l4.5,14.1l4.6-14.1 C166,100.8,171.7,100.8,171.7,100.8z"></path> <path class="st0" d="M10,193.5c-1.9,0-3.1,1-3.1,3.8v4.1H1.2v-3.7c0-6.1,3.1-9.6,9-9.6s9,3.5,9,9.6c0,12-12,16.5-12,22.8 c0,0.3,0,0.5,0.1,0.8h11.4v5.5H1.2v-4.7c0-11.3,11.9-13.1,11.9-24.2C13.1,194.4,11.9,193.5,10,193.5z"></path> <path class="st0" d="M28.6,220.9v5.8h-5.8v-5.8H28.6z"></path> <path class="st1" d="M67.9,197.3v1.4c0,3.9-1.2,6.4-3.9,7.7c3.2,1.3,4.5,4.2,4.5,8.2v3.1c0,5.9-3.1,9.1-9.1,9.1h-9.5v-38.3H59 C65.2,188.5,67.9,191.4,67.9,197.3z M55.9,193.9V204h2.4c2.2,0,3.6-1,3.6-4v-2.1c0-2.7-0.9-3.9-3.1-3.9h-2.9V193.9z M55.9,209.5 v11.8h3.4c2,0,3.1-0.9,3.1-3.8v-3.3c0-3.6-1.1-4.6-3.9-4.6h-2.6V209.5z"></path> <path class="st1" d="M90.1,197.3v1.4c0,3.9-1.2,6.4-3.9,7.7c3.2,1.3,4.5,4.2,4.5,8.2v3.1c0,5.9-3.1,9.1-9.1,9.1h-9.5v-38.3h9.1 C87.4,188.5,90.1,191.4,90.1,197.3z M78.1,193.9V204h2.4c2.2,0,3.6-1,3.6-4v-2.1c0-2.7-0.9-3.9-3.1-3.9h-2.9V193.9z M78.1,209.5 v11.8h3.4c2,0,3.1-0.9,3.1-3.8v-3.3c0-3.6-1.1-4.6-3.9-4.6h-2.6V209.5z"></path> <path class="st1" d="M100.3,204.6h8.3v5.5h-8.3v11.2h10.4v5.5H94.3v-38.3h16.4v5.5h-10.4V204.6z"></path> <path class="st1" d="M131.8,231.9v-5.1H119v5.1h-5.8v-10.5h2.4c1-1.3,1.4-2.7,1.5-5l1.4-27.9h16.8v32.9h2.6v10.5H131.8z M122.8,216.3c-0.2,2.9-0.7,4.2-1.7,5.1h7.9v-27.5h-5.1L122.8,216.3z"></path> <path class="st1" d="M147.3,226.7h-6.2v-38.2h5.4v24.2l2.2-8.4l4.9-15.8h6.6v38.3h-5.4v-27l-2.5,9.4L147.3,226.7z"></path> <path class="st1" d="M178.9,226.7h-6v-38.2h19v38.3h-6.1v-32.9H179L178.9,226.7L178.9,226.7z"></path> <path class="st1" d="M214,197.9v5c0,6.1-3,9.5-9,9.5h-2.8v14.4h-6v-38.3h8.9C211.1,188.5,214,191.8,214,197.9z M202.2,193.9v13h2.8 c1.9,0,3-0.9,3-3.6v-5.7c0-2.7-1-3.6-3-3.6h-2.8V193.9z"></path> <path class="st1" d="M216.3,197.6c0-6.1,3.2-9.6,9.1-9.6c5.9,0,9.1,3.5,9.1,9.6v19.9c0,6.1-3.2,9.6-9.1,9.6c-5.9,0-9.1-3.5-9.1-9.6 V197.6z M222.3,217.9c0,2.7,1.2,3.8,3.1,3.8s3.1-1,3.1-3.8v-20.6c0-2.7-1.2-3.8-3.1-3.8s-3.1,1-3.1,3.8V217.9z"></path> <path class="st1" d="M251.2,215.6l4.1-27.2h8.4v38.3H258v-27.4l-4.2,27.4h-5.7l-4.5-27.1v27.1h-5.2v-38.2h8.4L251.2,215.6z"></path> <path class="st1" d="M267.5,197.6c0-6.1,3.2-9.6,9.1-9.6s9.1,3.5,9.1,9.6v19.9c0,6.1-3.2,9.6-9.1,9.6s-9.1-3.5-9.1-9.6V197.6z M273.6,217.9c0,2.7,1.2,3.8,3.1,3.8s3.1-1,3.1-3.8v-20.6c0-2.7-1.2-3.8-3.1-3.8s-3.1,1-3.1,3.8V217.9z"></path> <path class="st1" d="M297.5,211.5l-1.9,3.5v11.8h-6v-38.3h6v16.7l7.9-16.7h6l-8.4,17.1l8.4,21.2h-6.2L297.5,211.5z"></path> <path class="st1" d="M311.8,197.6c0-6.1,3.2-9.6,9.1-9.6s9.1,3.5,9.1,9.6v19.9c0,6.1-3.2,9.6-9.1,9.6s-9.1-3.5-9.1-9.6V197.6z M317.8,217.9c0,2.7,1.2,3.8,3.1,3.8s3.1-1,3.1-3.8v-20.6c0-2.7-1.2-3.8-3.1-3.8s-3.1,1-3.1,3.8V217.9z"></path> <path class="st1" d="M351.3,231.9v-5.1h-12.8v5.1h-5.8v-10.5h2.4c1-1.3,1.4-2.7,1.5-5l1.4-27.9h16.8v32.9h2.6v10.5H351.3z M342.4,216.3c-0.2,2.9-0.7,4.2-1.7,5.1h7.9v-27.5h-5.1L342.4,216.3z"></path> <path class="st1" d="M386.5,212.5v5.1c0,6.1-3.1,9.6-9,9.6s-9-3.5-9-9.6v-20c0-6.1,3.1-9.6,9-9.6s9,3.5,9,9.6v3.7h-5.7v-4.1 c0-2.7-1.2-3.8-3.1-3.8s-3.1,1-3.1,3.8v20.7c0,2.7,1.2,3.7,3.1,3.7s3.1-1,3.1-3.7v-5.5h5.7V212.5z"></path> <path class="st1" d="M416.9,188.5v38.3h-6v-15.5c-1.3,1.4-3.5,2.1-5.1,2.1c-4.9,0-7.5-3.6-7.5-8.8v-16.1h6v15.7 c0,2.6,1.6,3.8,3.5,3.8s3.1-1.4,3.1-3.9v-15.6H416.9z"></path> <path class="st1" d="M427.3,204.6h8.3v5.5h-8.3v11.2h10.4v5.5h-16.4v-38.3h16.4v5.5h-10.4V204.6z"></path> <path class="st1" d="M449.3,211.5l-1.9,3.5v11.8h-6v-38.3h6v16.7l7.9-16.7h6l-8.3,17l8.4,21.2h-6.2L449.3,211.5z"></path> <path class="st1" d="M483.5,226.7h-6.1l-1-6.9H469l-1,6.9h-5.5l6.1-38.3h8.8L483.5,226.7z M469.8,214.6h5.8l-2.9-19.4L469.8,214.6z"></path> <g> <path class="st1" d="M49.9,290.4v-38.2h15.9v5.5H56v32.8h-6.1V290.4z"></path> <path class="st1" d="M76.1,290.4h-6.2v-38.2h5.4v24.2l2.2-8.4l4.9-15.8H89v38.3h-5.4v-27l-2.5,9.4L76.1,290.4z"></path> <path class="st1" d="M99.2,290.4h-6v-38.2h19v38.3h-6.1v-32.9h-6.8v32.8H99.2z"></path> <path class="st1" d="M122.6,268.3h8.3v5.5h-8.3V285H133v5.5h-16.4v-38.3H133v5.5h-10.4V268.3z"></path> <path class="st1" d="M154.4,261.6v5c0,6.1-3,9.5-9,9.5h-2.8v14.4h-6v-38.3h8.9C151.6,252.2,154.4,255.5,154.4,261.6z M142.6,257.6 v13h2.8c1.9,0,3-0.9,3-3.6v-5.7c0-2.7-1-3.6-3-3.6h-2.8V257.6z"></path> <path class="st1" d="M169.9,279.3l4.1-27.2h8.4v38.3h-5.7V263l-4.2,27.4h-5.7l-4.5-27.1v27.1h-5.2v-38.2h8.4L169.9,279.3z"></path> <path class="st1" d="M206.2,290.4h-6.1l-1-6.9h-7.4l-1,6.9h-5.5l6.1-38.3h8.8L206.2,290.4z M192.6,278.3h5.8l-2.9-19.4L192.6,278.3 z"></path> <path class="st1" d="M226.8,261.6v5c0,6.1-3,9.5-9,9.5h-2.8v14.4h-6v-38.3h8.9C223.9,252.2,226.8,255.5,226.8,261.6z M215.1,257.6 v13h2.8c1.9,0,3-0.9,3-3.6v-5.7c0-2.7-1-3.6-3-3.6h-2.8V257.6z"></path> <path class="st1" d="M237.6,275.2l-1.9,3.5v11.8h-6v-38.3h6v16.7l7.9-16.7h6l-8.4,17l8.4,21.2h-6.2L237.6,275.2z"></path> <path class="st1" d="M258.2,268.3h8.3v5.5h-8.3V285h10.4v5.5h-16.4v-38.3h16.4v5.5h-10.4V268.3z"></path> <path class="st1" d="M270.6,252.2h18.6v5.5h-6.3v32.8h-6v-32.9h-6.3V252.2z"></path> <path class="st1" d="M311.3,290.4h-6.1l-1-6.9h-7.4l-1,6.9h-5.5l6.1-38.3h8.8L311.3,290.4z M297.5,278.3h5.8l-2.9-19.4L297.5,278.3 z"></path> <path class="st1" d="M330,257.2l-3.3,14l3.3,14.9h-5.4l-3.4-14.9l3.4-14H330z M338.9,257.2l-3.3,14l3.3,14.9h-5.4l-3.4-14.9l3.4-14 H338.9z"></path> <path class="st1" d="M347.9,268.3h8.3v5.5h-8.3V285h10.4v5.5h-16.4v-38.3h16.4v5.5h-10.4V268.3z"></path> <path class="st1" d="M380,261v1.4c0,3.9-1.2,6.4-3.9,7.7c3.2,1.3,4.5,4.2,4.5,8.2v3.1c0,5.9-3.1,9.1-9.1,9.1H362v-38.3h9.1 C377.3,252.2,380,255.1,380,261z M368,257.6v10.1h2.4c2.2,0,3.6-1,3.6-4v-2.1c0-2.7-0.9-3.9-3.1-3.9L368,257.6L368,257.6z M368,273.2V285h3.4c2,0,3.1-0.9,3.1-3.8v-3.3c0-3.6-1.1-4.6-3.9-4.6L368,273.2L368,273.2z"></path> <path class="st1" d="M402,261.6v5c0,6.1-3,9.5-9,9.5h-2.8v14.4h-6v-38.3h8.9C399.1,252.2,402,255.5,402,261.6z M390.2,257.6v13h2.8 c1.9,0,3-0.9,3-3.6v-5.7c0-2.7-1-3.6-3-3.6h-2.8V257.6z"></path> <path class="st1" d="M404.3,261.3c0-6.1,3.2-9.6,9.1-9.6c5.9,0,9.1,3.5,9.1,9.6v19.9c0,6.1-3.2,9.6-9.1,9.6c-5.9,0-9.1-3.5-9.1-9.6 V261.3z M410.3,281.6c0,2.7,1.2,3.8,3.1,3.8s3.1-1,3.1-3.8V261c0-2.7-1.2-3.8-3.1-3.8s-3.1,1-3.1,3.8V281.6z"></path> <path class="st1" d="M426,261.3c0-6.1,3.2-9.6,9.1-9.6c5.9,0,9.1,3.5,9.1,9.6v19.9c0,6.1-3.2,9.6-9.1,9.6c-5.9,0-9.1-3.5-9.1-9.6 V261.3z M432,281.6c0,2.7,1.2,3.8,3.1,3.8s3.1-1,3.1-3.8V261c0-2.7-1.2-3.8-3.1-3.8s-3.1,1-3.1,3.8V281.6z"></path> <path class="st1" d="M454.1,290.4h-6v-38.2h19v38.3H461v-32.9h-6.9V290.4z"></path> <path class="st1" d="M469.7,252.2h18.6v5.5H482v32.8h-6v-32.9h-6.3V252.2z"></path> <path class="st1" d="M495,257.2l3.4,14l-3.4,14.9h-5.4l3.3-14.9l-3.3-14H495z M503.8,257.2l3.4,14l-3.4,14.9h-5.4l3.3-14.9l-3.3-14 H503.8z"></path> </g> <path class="st0" d="M12.8,349.8c0-3.4-1.2-4.4-3.1-4.4s-3.1,1-3.1,3.8v2.5H0.9v-2.1c0-6.1,3.1-9.6,9-9.6s9,3.5,9,9.6v1 c0,4.1-1.3,6.7-4.2,7.9c3,1.3,4.2,4.2,4.2,8v3c0,6.1-3.1,9.6-9,9.6s-9-3.5-9-9.6v-3.2h5.7v3.6c0,2.7,1.2,3.8,3.1,3.8 s3.1-0.9,3.1-4.3v-3c0-3.6-1.2-4.9-3.9-4.9h-2V356h2.3c2.2,0,3.6-1,3.6-4C12.8,352,12.8,349.8,12.8,349.8z"></path> <path class="st0" d="M28.6,372.9v5.8h-5.8v-5.8H28.6z"></path> <path class="st1" d="M55.9,378.7h-6v-38.3h19v38.3h-6.1v-32.8H56v32.8H55.9z"></path> <path class="st1" d="M72.8,349.6c0-6.1,3.2-9.6,9.1-9.6s9.1,3.5,9.1,9.6v19.9c0,6.1-3.2,9.6-9.1,9.6s-9.1-3.5-9.1-9.6V349.6z M78.8,369.9c0,2.7,1.2,3.8,3.1,3.8s3.1-1,3.1-3.8v-20.7c0-2.7-1.2-3.8-3.1-3.8s-3.1,1-3.1,3.8V369.9z"></path> <path class="st1" d="M93.2,373.3c2.7,0,3.6-0.4,3.7-3.9l1-28.9h17v38.3h-6.1V346h-5.2l-0.7,23.1c-0.2,7-2.7,9.7-8.7,9.7h-0.9v-5.5 H93.2z"></path> <path class="st1" d="M132.8,369c-1.4,6.9-3.8,10.3-12.1,9.8v-5.4c3.1,0.2,4.8-0.3,5.3-3.1l0.1-0.3l-8.3-29.5h6l3.3,13.1l1.9,9 l1.4-8.9l2.7-13.1h6.3L132.8,369z"></path> <path class="st1" d="M160.1,340.4v38.3h-6v-15.4c-1.3,1.4-3.5,2.1-5.1,2.1c-4.9,0-7.5-3.6-7.5-8.8v-16.2h6v15.7 c0,2.6,1.6,3.8,3.5,3.8s3.1-1.4,3.1-3.9v-15.5h6V340.4z"></path> <path class="st1" d="M170.7,378.7h-6.2v-38.3h5.4v24.2l2.2-8.4l4.9-15.8h6.6v38.3h-5.4v-26.9l-2.5,9.4L170.7,378.7z"></path> <path class="st0" d="M331.7,366.3v3.6c0,2.7,1.2,3.7,3.1,3.7c1.9,0,3.1-1,3.1-3.7v-8.4c0-2.7-1.2-3.8-3.1-3.8c-1.9,0-3.1,1-3.1,3.8 v1.1H326l1.1-22.2H343v5.5h-10.4l-0.5,9.1c1.1-1.8,2.8-2.8,5.2-2.8c4.4,0,6.7,3.1,6.7,8.7v8.5c0,6.1-3.1,9.6-9,9.6s-9-3.5-9-9.6 v-3.2L331.7,366.3L331.7,366.3z"></path> <path class="st0" d="M347.4,349.6c0-6.1,3.2-9.6,9.1-9.6c5.9,0,9.1,3.5,9.1,9.6v19.9c0,6.1-3.2,9.6-9.1,9.6s-9.1-3.5-9.1-9.6V349.6z M353.4,369.9c0,2.7,1.2,3.8,3.1,3.8c1.9,0,3.1-1,3.1-3.8v-20.7c0-2.7-1.2-3.8-3.1-3.8c-1.9,0-3.1,1-3.1,3.8V369.9z"></path> <path class="st0" d="M390.8,367.6l4.1-27.2h8.4v38.3h-5.7v-27.4l-4.2,27.4h-5.7l-4.5-27.1v27.1H378v-38.3h8.4L390.8,367.6z"></path> <path class="st0" d="M407.1,349.6c0-6.1,3.2-9.6,9.1-9.6s9.1,3.5,9.1,9.6v19.9c0,6.1-3.2,9.6-9.1,9.6s-9.1-3.5-9.1-9.6V349.6z M413.1,369.9c0,2.7,1.2,3.8,3.1,3.8s3.1-1,3.1-3.8v-20.7c0-2.7-1.2-3.8-3.1-3.8s-3.1,1-3.1,3.8V369.9z"></path> <path class="st0" d="M435.3,378.7h-6v-38.3h6v16.4h6.8v-16.4h6.1v38.3h-6.1v-16.4h-6.8V378.7z"></path> <path class="st0" d="M458.6,356.6h8.3v5.5h-8.3v11.2H469v5.5h-16.4v-38.3H469v5.5h-10.4V356.6z"></path> <path class="st0" d="M470.9,340.4h18.6v5.5h-6.3v32.8h-6v-32.8h-6.3L470.9,340.4L470.9,340.4z"></path> <image style="overflow:visible;enable-background:new ;" width="4030" height="1147" xlink:href="../../Snickers2.png" transform="matrix(6.309940e-02 0 0 6.309940e-02 201.7094 17.3167)"> </image> <g> <g> <defs> <rect id="SVGID_1_" x="185.5" y="89.7" width="215.1" height="61.9"></rect> </defs> <clipPath id="SVGID_2_"> <use xlink:href="#SVGID_1_" style="overflow:visible;"></use> </clipPath> <g class="st2"> <image style="overflow:visible;enable-background:new ;" width="3129" height="992" xlink:href="../../Snickers1.png" transform="matrix(6.873599e-02 0 0 6.873599e-02 185.525 84.9947)"> </image> </g> </g> </g> <g> <path class="st0" d="M59.8,416.3c0-3.4-1.2-4.4-3.1-4.4s-3.2,1-3.2,3.8v3.1H48V416c0-6.1,3-9.5,8.9-9.5s9,3.5,9,9.6v1 c0,4.1-1.3,6.7-4.2,7.9c3,1.3,4.2,4.2,4.2,8v3c0,6.1-3.1,9.6-9,9.6s-9-3.5-9-9.6v-4.2h5.7v4.6c0,2.7,1.2,3.8,3.1,3.8 s3.1-0.9,3.1-4.3v-3c0-3.6-1.2-4.9-3.9-4.9h-1.5v-5.5h1.8c2.2,0,3.6-1,3.6-4V416.3z"></path> <path class="st0" d="M69.4,416.1c0-6.1,3.2-9.6,9.1-9.6s9.1,3.5,9.1,9.6V436c0,6.1-3.2,9.6-9.1,9.6s-9.1-3.5-9.1-9.6V416.1z M75.4,436.4c0,2.7,1.2,3.8,3.1,3.8s3.1-1,3.1-3.8v-20.7c0-2.7-1.2-3.8-3.1-3.8s-3.1,1-3.1,3.8V436.4z"></path> <path class="st0" d="M89.8,439.8c2.7,0,3.6-0.4,3.7-3.9l1-28.9h17v38.3h-6.1v-32.8h-5.2l-0.7,23.1c-0.2,7-2.7,9.7-8.7,9.7h-0.9 L89.8,439.8L89.8,439.8z"></path> <path class="st0" d="M115.6,416.1c0-6.1,3.2-9.6,9.1-9.6s9.1,3.5,9.1,9.6V436c0,6.1-3.2,9.6-9.1,9.6s-9.1-3.5-9.1-9.6V416.1z M121.6,436.4c0,2.7,1.2,3.8,3.1,3.8s3.1-1,3.1-3.8v-20.7c0-2.7-1.2-3.8-3.1-3.8s-3.1,1-3.1,3.8V436.4z"></path> <path class="st0" d="M136,406.9h18.6v5.5h-6.3v32.8h-6v-32.8H136L136,406.9L136,406.9z"></path> <path class="st0" d="M176.6,445.2h-6l-1-6.9h-7.4l-1,6.9h-5.6l6.1-38.3h8.8L176.6,445.2z M162.9,433.1h5.8l-2.9-19.3L162.9,433.1z"></path> <g> <path class="st1" d="M180.6,401.1v3.1l2.8-1l0.9,2.2l-2.8,1.2l1.8,2.5l-1.9,1.4l-1.9-2.5l-1.9,2.5l-2-1.4l1.8-2.6l-2.8-1.1 l0.8-2.2l2.9,1v-3.1H180.6z"></path> </g> <path id="WG_x5F_WoT_x5F_Logo_x5F_OneLevel_x5F_Simplified_x5F_Monochrome_x5F_1c_x5F_Eng_4_" class="st1" d="M359.6,406.4H350 l-0.2,38.5h9.3c6.4-0.1,9.3-5.8,9-9.8l0.1-18.8C368.4,410.6,364.1,406.4,359.6,406.4L359.6,406.4z M210.2,402l-8.6,8.8h12v35.3 l4.3,4.3l4.3-4.3v-35.3h12.1l-8.5-8.8H210.2L210.2,402z M209.7,414.1h-8.2v19.8l6.2,6.3l5.9-5.7l-3.9-3.7V414.1L209.7,414.1z M238.8,435.9v-26.8l-11-10.9h-19.7l-11.3,11.2v26.5l21,20.8L238.8,435.9L238.8,435.9z M199.1,434.8v-24.6l10.1-10h17.6l9.8,9.8 v24.9l-18.7,18.6L199.1,434.8L199.1,434.8z M226,430.8l-3.7,3.7l0,0l5.7,5.7l6.2-6.3v-19.8H226V430.8L226,430.8z M361.3,435.4 c0,1.1-0.9,2-1.9,2h-2.6V414h2.6c1.1,0,1.9,0.9,1.9,2V435.4L361.3,435.4z M337.8,406.4h-7.3v38.5h16.6v-7.6h-9.3V406.4L337.8,406.4 z M295.6,406.4L295.6,406.4c-4,0-6,2.1-7.4,3.8c-1.4,1.7-1.8,4.3-1.8,6.1v19.1c0,3.4,1.3,5.7,2.9,7c2.3,1.9,3.6,2.5,6.4,2.6 c0.1,0,0.2,0,0.4,0c2.6,0,4.3-0.8,6.2-2.5c0.8-0.7,2.8-3.4,2.8-6.4l-0.1-19.7C304.8,410.8,300.7,406.4,295.6,406.4L295.6,406.4 L295.6,406.4z M297.7,435.5c0,1.2-1,2.1-2.2,2.1s-2.2-0.9-2.2-2.1v-19.9c0-1.2,1-2.1,2.2-2.1s2.2,0.9,2.2,2.1V435.5L297.7,435.5z M323.2,428.4c1.1-1.1,3.2-3.7,3.1-6.1v-2.6v-4.3c-0.8-5.8-4-8.7-9.7-9h-9.1v38.5h6.8V431h1.9l3.9,13.9h7.7l-0.5-1.6L323.2,428.4 L323.2,428.4z M319.2,421.4c0,1.1-1,2.1-2.3,2.1h-2.5v-9.4h3.2c0.8,0,1.7,1,1.7,1.7v5.6H319.2z M383.1,425.1 c0.2-3.6-3.2-6.2-6.1-6.2c0,0,0,0-0.1,0c-3.8,0-6.1,2.7-6.2,6.2l-0.1,12.8c-0.3,3.6,2.3,7,5.9,7l0,0c3.6,0,6.7-3.2,6.5-6.5 L383.1,425.1L383.1,425.1z M378.1,438.2c0,0.7-0.5,1.2-1.2,1.2c-0.6,0-1.2-0.5-1.2-1.2v-13.1c0-0.7,0.5-1.2,1.2-1.2 c0.6,0,1.2,0.5,1.2,1.2V438.2L378.1,438.2z M478.6,406.4h-8.7l-5.1,10.9v-10.9h-7.2l-0.2,38.5h7.2v-16.1l6.2,16.1h8.1l-9-22.7 L478.6,406.4L478.6,406.4z M385.8,444.9h5.2v-10.7h4.8v-4.7h-4.9v-5h6.7v-5.2h-11.8V444.9L385.8,444.9z M447.6,424.2l-5.7-17.8 h-7.7v38.5h7.4l0.1-18.4l5.8,18.4h7.4v-38.5h-7.3V424.2L447.6,424.2z M413.2,413.8v-7.4h-18.6v7.4h5.7v0.1v31h7.4l-0.1-31.2 L413.2,413.8L413.2,413.8z M417,406.4l-0.1,0.6l-6.5,38h7.6l1.5-9h3.9l1.3,9h7.6l-6.4-38.5H417V406.4z M420.1,429.5l1.4-7.9 l1.1,7.9H420.1L420.1,429.5z M492.8,425.2c-1.1-1-1.8-1.7-2.5-2.4c-0.6-0.6-1.3-1-1.9-1.7c-0.9-0.9-2.6-3.1-2.7-4.7 c-0.1-0.9-0.2-1.7,0.6-2.8c0.4-0.5,0.9-0.7,1.4-0.7c0.1,0,0.2,0,0.3,0c0.8,0.1,1.5,0.9,1.7,2.1l0.4,2.1l7-1c-0.1-0.5,0-2.5-0.5-3.6 c-1.2-3.3-3.8-5.5-7-6.2c-0.7-0.1-1.4-0.2-2.1-0.2c-1.3,0-2.6,0.2-4,0.7c-2.4,0.9-5.6,4.3-5.5,8.8c0.1,2.2,0,4.1,1.6,6.5 c2,3.3,5.1,5.7,8.3,8.7c1.4,1.3,2.5,3.6,1.6,5.7c-0.4,0.9-1.2,1.4-2,1.4c-0.5,0-1-0.2-1.5-0.6c-1.5-1.3-1.3-3.4-1.5-4.5l-7.1,0.1 c-0.1,4.8,2,8.7,4.5,10.6c2.5,1.9,7.1,2,9.9,0.9c1.9-0.7,5.2-4.3,5.7-8.5C498.1,431.5,495.1,427.4,492.8,425.2L492.8,425.2z M275.9,422.8l-2-16.5h-7.5l-1.8,16.5l-1.9-16.5H255l6.3,38.5h6.9l2.1-13.8l2.3,13.8h6.9l5.7-38.5h-7.6L275.9,422.8L275.9,422.8z"></path> </g> <g> <path class="st1" d="M200.8,363.5l-1.9,3.5v11.8h-6v-38.5h6v16.8l7.9-16.8h6l-8.4,17.1l8.4,21.3h-6.2L200.8,363.5z"></path> <path class="st1" d="M215.1,349.6c0-6.2,3.2-9.7,9.2-9.7c5.9,0,9.2,3.5,9.2,9.7v20c0,6.2-3.2,9.7-9.2,9.7c-5.9,0-9.2-3.5-9.2-9.7 V349.6z M221.1,370c0,2.7,1.2,3.8,3.1,3.8c1.9,0,3.1-1,3.1-3.8v-20.8c0-2.7-1.2-3.8-3.1-3.8c-1.9,0-3.1,1-3.1,3.8V370z"></path> <path class="st1" d="M254.8,384v-5.2h-12.9v5.2H236v-10.6h2.4c1-1.3,1.4-2.7,1.5-5l1.4-28.1h16.9v33.1h2.6V384H254.8z M245.8,368.3 c-0.2,2.9-0.7,4.2-1.7,5.1h7.9v-27.6h-5.1L245.8,368.3z"></path> <path class="st1" d="M278.7,378.8h-6v-38.5h6v16.5h6.9v-16.5h6.2v38.5h-6.2v-16.5h-6.9V378.8z"></path> <path class="st1" d="M315.7,378.8h-6.1l-1-7h-7.4l-1,7h-5.6l6.2-38.5h8.8L315.7,378.8z M301.9,366.6h5.8l-2.9-19.5L301.9,366.6z"></path> </g> </svg> 