<?xml version="1.0" encoding="UTF-8"?> <!-- Generator: Adobe Illustrator 21.0.2, SVG Export Plug-In . SVG Version: 6.00 Build 0) --> <svg xmlns="http://www.w3.org/2000/svg" xmlns:xlink="http://www.w3.org/1999/xlink" id="Layer_1" x="0px" y="0px" viewBox="0 0 13.9 9" style="enable-background:new 0 0 13.9 9;" xml:space="preserve"> <style type="text/css"> .st0{fill:#FFFFFF;} </style> <g> <path class="st0" d="M2.1,3.8h1.7L3.6,5H1.9L1.3,8.5H0l1.5-8.4H5L4.8,1.3H2.6L2.1,3.8z"></path> <path class="st0" d="M8.2,8.5H6.9L7,7H5.3L4.8,8.5H3.6l2.8-8.4h1.9L8.2,8.5z M5.7,5.8H7l0.1-4.2L5.7,5.8z"></path> <path class="st0" d="M9.9,2.1C10.1,0.8,10.9,0,12.2,0c1.3,0,1.9,0.8,1.6,2.1l-0.8,4.4c-0.1,0.5-0.2,0.9-0.5,1.2 c0,0.2,0.1,0.2,0.3,0.2h0.1L12.9,9h-0.2c-0.6,0-0.9-0.2-1-0.6c-0.3,0.1-0.6,0.2-1,0.2c-1.3,0-1.9-0.8-1.6-2.1L9.9,2.1z M10.4,6.6 c-0.1,0.6,0.1,0.8,0.5,0.8s0.7-0.2,0.8-0.8L12.6,2c0.1-0.6-0.1-0.8-0.5-0.8S11.3,1.4,11.2,2L10.4,6.6z"></path> </g> </svg> 