<?xml version="1.0" encoding="UTF-8"?> <!-- Generator: Adobe Illustrator 21.0.2, SVG Export Plug-In . SVG Version: 6.00 Build 0) --> <svg xmlns="http://www.w3.org/2000/svg" xmlns:xlink="http://www.w3.org/1999/xlink" id="Layer_1" x="0px" y="0px" viewBox="0 0 955 256.7" style="enable-background:new 0 0 955 256.7;" xml:space="preserve"> <style type="text/css"> .st0{fill:#E5A33E;} .st1{fill:#FFFFFF;} .st2{clip-path:url(#SVGID_2_);} .st3{fill:none;} </style> <path class="st0" d="M4.9,29.3c4.6,0,5.7-2.2,6.6-4.8h4v38.3h-6V33.6H4.9V29.3z"></path> <path class="st0" d="M28.6,56.9v5.8h-5.8v-5.8H28.6z"></path> <path class="st1" d="M57.8,47.5L55.9,51v11.8h-6V24.5h6v16.7l7.9-16.7h6l-8.4,17.1l8.4,21.2h-6.2L57.8,47.5z"></path> <path class="st1" d="M85.9,53c-1.4,6.9-3.8,10.3-12.1,9.8v-5.4c3.1,0.2,4.8-0.3,5.3-3.1l0.1-0.3l-8.3-29.5h6l3.1,13l1.9,9l1.4-8.9 L86,24.5h6.3L85.9,53z"></path> <path class="st1" d="M100.9,62.7h-6V24.5h19v38.3h-6.1V29.9H101L100.9,62.7L100.9,62.7z"></path> <path class="st1" d="M124.4,62.7h-6.2V24.5h5.4v24.2l2.2-8.4l4.9-15.8h6.6v38.3h-5.4v-27l-2.5,9.4L124.4,62.7z"></path> <path class="st1" d="M158.8,29.5c-1.9,0-3.1,1-3.1,3.8v4.1H150v-3.7c0-6.1,3.1-9.6,9-9.6s9,3.5,9,9.6c0,12-12,16.5-12,22.8 c0,0.3,0,0.5,0.1,0.8h11.4v5.5H150v-4.7c0-11.3,11.9-13.1,11.9-24.2C161.9,30.4,160.7,29.5,158.8,29.5z"></path> <path class="st1" d="M191.7,24.5l-6.3,18.6l6.7,19.7h-6.3l-4.9-15.1l-5,15.1h-5.6l6.7-19.7l-6.3-18.6h6.2l4.5,14.1l4.6-14.1 C186,24.5,191.7,24.5,191.7,24.5z"></path> <path class="st1" d="M480.8,62.7h-6.2V24.5h5.4v24.2l2.2-8.4l4.9-15.8h6.6v38.3h-5.4v-27l-2.5,9.4L480.8,62.7z"></path> <path class="st1" d="M496.3,57.3c2.7,0,3.6-0.4,3.7-3.9l1-28.9h17v38.3h-6.1V29.9h-5.2L506,53.1c-0.2,7-2.7,9.7-8.7,9.7h-0.9v-5.5 H496.3z"></path> <path class="st1" d="M528.8,62.7h-6.2V24.5h5.4v24.2l2.2-8.4l4.9-15.8h6.6v38.3h-5.4v-27l-2.5,9.4L528.8,62.7z"></path> <path class="st1" d="M566,33.9c0-3.4-1.2-4.4-3.1-4.4s-3.1,1-3.1,3.8v2.5h-5.7v-2.1c0-6.1,3.1-9.6,9-9.6s9,3.5,9,9.6v1 c0,4.1-1.3,6.7-4.2,7.9c3,1.3,4.2,4.2,4.2,8v3c0,6.1-3.1,9.6-9,9.6s-9-3.5-9-9.6v-3.2h5.7V54c0,2.7,1.2,3.8,3.1,3.8s3.1-0.9,3.1-4.3 v-3c0-3.6-1.2-4.9-3.9-4.9h-2v-5.5h2.3c2.2,0,3.6-1,3.6-4L566,33.9L566,33.9z"></path> <path class="st1" d="M596.1,24.5l-6.3,18.6l6.7,19.7h-6.3l-4.9-15.1l-5,15.1h-5.6l6.7-19.7l-6.3-18.6h6.2l4.5,14.1l4.6-14.1 C590.4,24.5,596.1,24.5,596.1,24.5z"></path> <path class="st0" d="M10,115.2c-1.9,0-3.1,1-3.1,3.8v4.1H1.2v-3.7c0-6.1,3.1-9.6,9-9.6s9,3.5,9,9.6c0,12-12,16.5-12,22.8 c0,0.3,0,0.5,0.1,0.8h11.4v5.5H1.2v-4.7c0-11.3,11.9-13.1,11.9-24.2C13.1,116.1,11.9,115.2,10,115.2z"></path> <path class="st0" d="M28.6,142.6v5.8h-5.8v-5.8H28.6z"></path> <path class="st1" d="M67.9,119v1.4c0,3.9-1.2,6.4-3.9,7.7c3.2,1.3,4.5,4.2,4.5,8.2v3.1c0,5.9-3.1,9.1-9.1,9.1h-9.5v-38.3H59 C65.2,110.2,67.9,113.1,67.9,119z M55.9,115.6v10.1h2.4c2.2,0,3.6-1,3.6-4v-2.1c0-2.7-0.9-3.9-3.1-3.9L55.9,115.6L55.9,115.6z M55.9,131.2V143h3.4c2,0,3.1-0.9,3.1-3.8v-3.3c0-3.6-1.1-4.6-3.9-4.6h-2.6V131.2z"></path> <path class="st1" d="M90.1,119v1.4c0,3.9-1.2,6.4-3.9,7.7c3.2,1.3,4.5,4.2,4.5,8.2v3.1c0,5.9-3.1,9.1-9.1,9.1h-9.5v-38.3h9.1 C87.4,110.2,90.1,113.1,90.1,119z M78.1,115.6v10.1h2.4c2.2,0,3.6-1,3.6-4v-2.1c0-2.7-0.9-3.9-3.1-3.9L78.1,115.6L78.1,115.6z M78.1,131.2V143h3.4c2,0,3.1-0.9,3.1-3.8v-3.3c0-3.6-1.1-4.6-3.9-4.6h-2.6V131.2z"></path> <path class="st1" d="M100.3,126.3h8.3v5.5h-8.3V143h10.4v5.5H94.3v-38.3h16.4v5.5h-10.4V126.3z"></path> <path class="st1" d="M131.8,153.6v-5.1H119v5.1h-5.8v-10.5h2.4c1-1.3,1.4-2.7,1.5-5l1.4-27.9h16.8v32.9h2.6v10.5H131.8z M122.8,138 c-0.2,2.9-0.7,4.2-1.7,5.1h7.9v-27.5h-5.1L122.8,138z"></path> <path class="st1" d="M147.3,148.4h-6.2v-38.2h5.4v24.2l2.2-8.4l4.9-15.8h6.6v38.3h-5.4v-27l-2.5,9.4L147.3,148.4z"></path> <path class="st1" d="M178.9,148.4h-6v-38.2h19v38.3h-6.1v-32.9H179L178.9,148.4L178.9,148.4z"></path> <path class="st1" d="M214,119.6v5c0,6.1-3,9.5-9,9.5h-2.8v14.4h-6v-38.3h8.9C211.1,110.2,214,113.5,214,119.6z M202.2,115.6v13h2.8 c1.9,0,3-0.9,3-3.6v-5.7c0-2.7-1-3.6-3-3.6h-2.8V115.6z"></path> <path class="st1" d="M216.3,119.3c0-6.1,3.2-9.6,9.1-9.6c5.9,0,9.1,3.5,9.1,9.6v19.9c0,6.1-3.2,9.6-9.1,9.6c-5.9,0-9.1-3.5-9.1-9.6 V119.3z M222.3,139.6c0,2.7,1.2,3.8,3.1,3.8s3.1-1,3.1-3.8V119c0-2.7-1.2-3.8-3.1-3.8s-3.1,1-3.1,3.8V139.6z"></path> <path class="st1" d="M251.2,137.3l4.1-27.2h8.4v38.3H258V121l-4.2,27.4h-5.7l-4.5-27.1v27.1h-5.2v-38.2h8.4L251.2,137.3z"></path> <path class="st1" d="M267.5,119.3c0-6.1,3.2-9.6,9.1-9.6s9.1,3.5,9.1,9.6v19.9c0,6.1-3.2,9.6-9.1,9.6s-9.1-3.5-9.1-9.6V119.3z M273.6,139.6c0,2.7,1.2,3.8,3.1,3.8s3.1-1,3.1-3.8V119c0-2.7-1.2-3.8-3.1-3.8s-3.1,1-3.1,3.8V139.6z"></path> <path class="st1" d="M297.5,133.2l-1.9,3.5v11.8h-6v-38.3h6v16.7l7.9-16.7h6l-8.4,17.1l8.4,21.2h-6.2L297.5,133.2z"></path> <path class="st1" d="M311.8,119.3c0-6.1,3.2-9.6,9.1-9.6s9.1,3.5,9.1,9.6v19.9c0,6.1-3.2,9.6-9.1,9.6s-9.1-3.5-9.1-9.6V119.3z M317.8,139.6c0,2.7,1.2,3.8,3.1,3.8s3.1-1,3.1-3.8V119c0-2.7-1.2-3.8-3.1-3.8s-3.1,1-3.1,3.8V139.6z"></path> <path class="st1" d="M351.3,153.6v-5.1h-12.8v5.1h-5.8v-10.5h2.4c1-1.3,1.4-2.7,1.5-5l1.4-27.9h16.8v32.9h2.6v10.5H351.3z M342.4,138c-0.2,2.9-0.7,4.2-1.7,5.1h7.9v-27.5h-5.1L342.4,138z"></path> <path class="st1" d="M386.5,134.2v5.1c0,6.1-3.1,9.6-9,9.6s-9-3.5-9-9.6v-20c0-6.1,3.1-9.6,9-9.6s9,3.5,9,9.6v3.7h-5.7v-4.1 c0-2.7-1.2-3.8-3.1-3.8s-3.1,1-3.1,3.8v20.7c0,2.7,1.2,3.7,3.1,3.7s3.1-1,3.1-3.7v-5.5h5.7V134.2z"></path> <path class="st1" d="M416.9,110.2v38.3h-6V133c-1.3,1.4-3.5,2.1-5.1,2.1c-4.9,0-7.5-3.6-7.5-8.8v-16.1h6v15.7c0,2.6,1.6,3.8,3.5,3.8 s3.1-1.4,3.1-3.9v-15.6H416.9z"></path> <path class="st1" d="M427.3,126.3h8.3v5.5h-8.3V143h10.4v5.5h-16.4v-38.3h16.4v5.5h-10.4V126.3z"></path> <path class="st1" d="M449.3,133.2l-1.9,3.5v11.8h-6v-38.3h6v16.7l7.9-16.7h6l-8.3,17l8.4,21.2h-6.2L449.3,133.2z"></path> <path class="st1" d="M483.5,148.4h-6.1l-1-6.9H469l-1,6.9h-5.5l6.1-38.3h8.8L483.5,148.4z M469.8,136.3h5.8l-2.9-19.4L469.8,136.3z"></path> <path class="st1" d="M494.8,148.4v-38.2h15.9v5.5h-9.8v32.8h-6.1V148.4z"></path> <path class="st1" d="M520.9,148.4h-6.2v-38.2h5.4v24.2l2.2-8.4l4.9-15.8h6.6v38.3h-5.4v-27l-2.5,9.4L520.9,148.4z"></path> <path class="st1" d="M544.1,148.4h-6v-38.2h19v38.3H551v-32.9h-6.8v32.8H544.1z"></path> <path class="st1" d="M567.4,126.3h8.3v5.5h-8.3V143h10.4v5.5h-16.4v-38.3h16.4v5.5h-10.4V126.3z"></path> <path class="st1" d="M599.3,119.6v5c0,6.1-3,9.5-9,9.5h-2.8v14.4h-6v-38.3h8.9C596.4,110.2,599.3,113.5,599.3,119.6z M587.5,115.6 v13h2.8c1.9,0,3-0.9,3-3.6v-5.7c0-2.7-1-3.6-3-3.6h-2.8V115.6z"></path> <path class="st1" d="M614.8,137.3l4.1-27.2h8.4v38.3h-5.7V121l-4.2,27.4h-5.7l-4.5-27.1v27.1H602v-38.2h8.4L614.8,137.3z"></path> <path class="st1" d="M651.1,148.4H645l-1-6.9h-7.4l-1,6.9h-5.5l6.1-38.3h8.8L651.1,148.4z M637.4,136.3h5.8l-2.9-19.4L637.4,136.3z"></path> <path class="st1" d="M671.7,119.6v5c0,6.1-3,9.5-9,9.5h-2.8v14.4h-6v-38.3h8.9C668.8,110.2,671.7,113.5,671.7,119.6z M659.9,115.6 v13h2.8c1.9,0,3-0.9,3-3.6v-5.7c0-2.7-1-3.6-3-3.6h-2.8V115.6z"></path> <path class="st1" d="M682.4,133.2l-1.9,3.5v11.8h-6v-38.3h6v16.7l7.9-16.7h6l-8.4,17l8.4,21.2h-6.2L682.4,133.2z"></path> <path class="st1" d="M703.1,126.3h8.3v5.5h-8.3V143h10.4v5.5h-16.4v-38.3h16.4v5.5h-10.4V126.3z"></path> <path class="st1" d="M715.5,110.2h18.6v5.5h-6.3v32.8h-6v-32.9h-6.3V110.2z"></path> <path class="st1" d="M756.2,148.4h-6.1l-1-6.9h-7.4l-1,6.9h-5.5l6.1-38.3h8.8L756.2,148.4z M742.4,136.3h5.8l-2.9-19.4L742.4,136.3z "></path> <path class="st1" d="M774.9,115.2l-3.3,14l3.3,14.9h-5.4l-3.4-14.9l3.4-14H774.9z M783.8,115.2l-3.3,14l3.3,14.9h-5.4l-3.4-14.9 l3.4-14H783.8z"></path> <path class="st1" d="M792.8,126.3h8.3v5.5h-8.3V143h10.4v5.5h-16.4v-38.3h16.4v5.5h-10.4V126.3z"></path> <path class="st1" d="M824.9,119v1.4c0,3.9-1.2,6.4-3.9,7.7c3.2,1.3,4.5,4.2,4.5,8.2v3.1c0,5.9-3.1,9.1-9.1,9.1h-9.5v-38.3h9.1 C822.2,110.2,824.9,113.1,824.9,119z M812.9,115.6v10.1h2.4c2.2,0,3.6-1,3.6-4v-2.1c0-2.7-0.9-3.9-3.1-3.9L812.9,115.6L812.9,115.6z M812.9,131.2V143h3.4c2,0,3.1-0.9,3.1-3.8v-3.3c0-3.6-1.1-4.6-3.9-4.6h-2.6V131.2z"></path> <path class="st1" d="M846.9,119.6v5c0,6.1-3,9.5-9,9.5h-2.8v14.4h-6v-38.3h8.9C844,110.2,846.9,113.5,846.9,119.6z M835.1,115.6v13 h2.8c1.9,0,3-0.9,3-3.6v-5.7c0-2.7-1-3.6-3-3.6h-2.8V115.6z"></path> <path class="st1" d="M849.2,119.3c0-6.1,3.2-9.6,9.1-9.6c5.9,0,9.1,3.5,9.1,9.6v19.9c0,6.1-3.2,9.6-9.1,9.6c-5.9,0-9.1-3.5-9.1-9.6 V119.3z M855.2,139.6c0,2.7,1.2,3.8,3.1,3.8s3.1-1,3.1-3.8V119c0-2.7-1.2-3.8-3.1-3.8s-3.1,1-3.1,3.8V139.6z"></path> <path class="st1" d="M870.9,119.3c0-6.1,3.2-9.6,9.1-9.6c5.9,0,9.1,3.5,9.1,9.6v19.9c0,6.1-3.2,9.6-9.1,9.6c-5.9,0-9.1-3.5-9.1-9.6 V119.3z M876.9,139.6c0,2.7,1.2,3.8,3.1,3.8s3.1-1,3.1-3.8V119c0-2.7-1.2-3.8-3.1-3.8s-3.1,1-3.1,3.8V139.6z"></path> <path class="st1" d="M899,148.4h-6v-38.2h19v38.3h-6.1v-32.9H899V148.4z"></path> <path class="st1" d="M914.6,110.2h18.6v5.5h-6.3v32.8h-6v-32.9h-6.3V110.2z"></path> <path class="st1" d="M939.9,115.2l3.4,14l-3.4,14.9h-5.4l3.3-14.9l-3.3-14H939.9z M948.7,115.2l3.4,14l-3.4,14.9h-5.4l3.3-14.9 l-3.3-14H948.7z"></path> <path class="st0" d="M12.8,205.1c0-3.4-1.2-4.4-3.1-4.4s-3.1,1-3.1,3.8v2.5H0.9v-2.1c0-6.1,3.1-9.6,9-9.6s9,3.5,9,9.6v1 c0,4.1-1.3,6.7-4.2,7.9c3,1.3,4.2,4.2,4.2,8v3c0,6.1-3.1,9.6-9,9.6s-9-3.5-9-9.6v-3.2h5.7v3.6c0,2.7,1.2,3.8,3.1,3.8 s3.1-0.9,3.1-4.3v-3c0-3.6-1.2-4.9-3.9-4.9h-2v-5.5h2.3c2.2,0,3.6-1,3.6-4C12.8,207.3,12.8,205.1,12.8,205.1z"></path> <path class="st0" d="M28.6,228.2v5.8h-5.8v-5.8H28.6z"></path> <path class="st1" d="M55.9,234h-6v-38.3h19V234h-6.1v-32.8H56V234H55.9z"></path> <path class="st1" d="M72.8,204.9c0-6.1,3.2-9.6,9.1-9.6s9.1,3.5,9.1,9.6v19.9c0,6.1-3.2,9.6-9.1,9.6s-9.1-3.5-9.1-9.6V204.9z M78.8,225.2c0,2.7,1.2,3.8,3.1,3.8s3.1-1,3.1-3.8v-20.7c0-2.7-1.2-3.8-3.1-3.8s-3.1,1-3.1,3.8V225.2z"></path> <path class="st1" d="M93.2,228.6c2.7,0,3.6-0.4,3.7-3.9l1-28.9h17v38.3h-6.1v-32.8h-5.2l-0.7,23.1c-0.2,7-2.7,9.7-8.7,9.7h-0.9v-5.5 H93.2z"></path> <path class="st1" d="M132.8,224.3c-1.4,6.9-3.8,10.3-12.1,9.8v-5.4c3.1,0.2,4.8-0.3,5.3-3.1l0.1-0.3l-8.3-29.5h6l3.3,13.1l1.9,9 l1.4-8.9l2.7-13.1h6.3L132.8,224.3z"></path> <path class="st1" d="M160.1,195.7V234h-6v-15.4c-1.3,1.4-3.5,2.1-5.1,2.1c-4.9,0-7.5-3.6-7.5-8.8v-16.2h6v15.7 c0,2.6,1.6,3.8,3.5,3.8s3.1-1.4,3.1-3.9v-15.5h6V195.7z"></path> <path class="st1" d="M170.7,234h-6.2v-38.3h5.4v24.2l2.2-8.4l4.9-15.8h6.6V234h-5.4v-26.9l-2.5,9.4L170.7,234z"></path> <path class="st0" d="M331.7,221.6v3.6c0,2.7,1.2,3.7,3.1,3.7c1.9,0,3.1-1,3.1-3.7v-8.4c0-2.7-1.2-3.8-3.1-3.8c-1.9,0-3.1,1-3.1,3.8 v1.1H326l1.1-22.2H343v5.5h-10.4l-0.5,9.1c1.1-1.8,2.8-2.8,5.2-2.8c4.4,0,6.7,3.1,6.7,8.7v8.5c0,6.1-3.1,9.6-9,9.6s-9-3.5-9-9.6 v-3.2L331.7,221.6L331.7,221.6z"></path> <path class="st0" d="M347.4,204.9c0-6.1,3.2-9.6,9.1-9.6c5.9,0,9.1,3.5,9.1,9.6v19.9c0,6.1-3.2,9.6-9.1,9.6s-9.1-3.5-9.1-9.6V204.9z M353.4,225.2c0,2.7,1.2,3.8,3.1,3.8c1.9,0,3.1-1,3.1-3.8v-20.7c0-2.7-1.2-3.8-3.1-3.8c-1.9,0-3.1,1-3.1,3.8V225.2z"></path> <path class="st0" d="M390.8,222.9l4.1-27.2h8.4V234h-5.7v-27.4l-4.2,27.4h-5.7l-4.5-27.1V234H378v-38.3h8.4L390.8,222.9z"></path> <path class="st0" d="M407.1,204.9c0-6.1,3.2-9.6,9.1-9.6s9.1,3.5,9.1,9.6v19.9c0,6.1-3.2,9.6-9.1,9.6s-9.1-3.5-9.1-9.6V204.9z M413.1,225.2c0,2.7,1.2,3.8,3.1,3.8s3.1-1,3.1-3.8v-20.7c0-2.7-1.2-3.8-3.1-3.8s-3.1,1-3.1,3.8V225.2z"></path> <path class="st0" d="M435.3,234h-6v-38.3h6v16.4h6.8v-16.4h6.1V234h-6.1v-16.4h-6.8V234z"></path> <path class="st0" d="M458.6,211.9h8.3v5.5h-8.3v11.2H469v5.5h-16.4v-38.3H469v5.5h-10.4V211.9z"></path> <path class="st0" d="M470.9,195.7h18.6v5.5h-6.3V234h-6v-32.8h-6.3L470.9,195.7L470.9,195.7z"></path> <path class="st0" d="M512.2,205.1c0-3.4-1.2-4.4-3.1-4.4s-3.2,1-3.2,3.8v3.1h-5.5v-2.8c0-6.1,3-9.5,8.9-9.5s9,3.5,9,9.6v1 c0,4.1-1.3,6.7-4.2,7.9c3,1.3,4.2,4.2,4.2,8v3c0,6.1-3.1,9.6-9,9.6s-9-3.5-9-9.6v-4.2h5.7v4.6c0,2.7,1.2,3.8,3.1,3.8 s3.1-0.9,3.1-4.3v-3c0-3.6-1.2-4.9-3.9-4.9h-1.5v-5.5h1.8c2.2,0,3.6-1,3.6-4V205.1z"></path> <path class="st0" d="M521.8,204.9c0-6.1,3.2-9.6,9.1-9.6c5.9,0,9.1,3.5,9.1,9.6v19.9c0,6.1-3.2,9.6-9.1,9.6c-5.9,0-9.1-3.5-9.1-9.6 V204.9z M527.8,225.2c0,2.7,1.2,3.8,3.1,3.8c1.9,0,3.1-1,3.1-3.8v-20.7c0-2.7-1.2-3.8-3.1-3.8c-1.9,0-3.1,1-3.1,3.8V225.2z"></path> <path class="st0" d="M542.2,228.6c2.7,0,3.6-0.4,3.7-3.9l1-28.9h17v38.3h-6.1v-32.8h-5.2l-0.7,23.1c-0.2,7-2.7,9.7-8.7,9.7h-0.9 L542.2,228.6L542.2,228.6z"></path> <path class="st0" d="M568,204.9c0-6.1,3.2-9.6,9.1-9.6c5.9,0,9.1,3.5,9.1,9.6v19.9c0,6.1-3.2,9.6-9.1,9.6c-5.9,0-9.1-3.5-9.1-9.6 V204.9z M574,225.2c0,2.7,1.2,3.8,3.1,3.8c1.9,0,3.1-1,3.1-3.8v-20.7c0-2.7-1.2-3.8-3.1-3.8c-1.9,0-3.1,1-3.1,3.8V225.2z"></path> <path class="st0" d="M588.4,195.7H607v5.5h-6.3V234h-6v-32.8h-6.3V195.7L588.4,195.7z"></path> <path class="st0" d="M629,234h-6l-1-6.9h-7.4l-1,6.9H608l6.1-38.3h8.8L629,234z M615.3,221.9h5.8l-2.9-19.3L615.3,221.9z"></path> <image style="overflow:visible;enable-background:new ;" width="4030" height="1147" xlink:href="../../Snickers2.png" transform="matrix(6.309940e-02 0 0 6.309940e-02 201.7094 5)"> </image> <g> <g> <defs> <rect id="SVGID_1_" x="609.9" y="13.4" width="215.1" height="61.9"></rect> </defs> <clipPath id="SVGID_2_"> <use xlink:href="#SVGID_1_" style="overflow:visible;"></use> </clipPath> <g class="st2"> <image style="overflow:visible;enable-background:new ;" width="3129" height="992" xlink:href="../../Snickers1.png" transform="matrix(6.873599e-02 0 0 6.873599e-02 609.925 8.6844)"> </image> </g> </g> </g> <g> <path class="st1" d="M633,189.9v3.1l2.8-1l0.9,2.2l-2.8,1.2l1.8,2.5l-1.9,1.4l-1.9-2.5l-1.9,2.5l-2-1.4l1.8-2.6l-2.8-1.1l0.8-2.2 l2.9,1v-3.1H633z"></path> </g> <rect id="Save_Zone_1_" x="301.5" y="23.7" class="st3" width="283.5" height="93.3"></rect> <path id="WG_x5F_WoT_x5F_Logo_x5F_OneLevel_x5F_Simplified_x5F_Monochrome_x5F_1c_x5F_Eng_4_" class="st1" d="M812,195.2h-9.6 l-0.2,38.5h9.3c6.4-0.1,9.3-5.8,9-9.8l0.1-18.8C820.8,199.4,816.5,195.2,812,195.2L812,195.2z M662.6,190.8l-8.6,8.8h12v35.3 l4.3,4.3l4.3-4.3v-35.3h12.1l-8.5-8.8H662.6L662.6,190.8z M662.1,202.9h-8.2v19.8l6.2,6.3l5.9-5.7l-3.9-3.7V202.9L662.1,202.9z M691.2,224.7v-26.8l-11-10.9h-19.7l-11.3,11.2v26.5l21,20.8L691.2,224.7L691.2,224.7z M651.5,223.6V199l10.1-10h17.6l9.8,9.8v24.9 l-18.7,18.6L651.5,223.6L651.5,223.6z M678.4,219.6l-3.7,3.7l0,0l5.7,5.7l6.2-6.3v-19.8h-8.2V219.6L678.4,219.6z M813.7,224.2 c0,1.1-0.9,2-1.9,2h-2.6v-23.4h2.6c1.1,0,1.9,0.9,1.9,2V224.2L813.7,224.2z M790.2,195.2h-7.3v38.5h16.6v-7.6h-9.3V195.2 L790.2,195.2z M748,195.2L748,195.2c-4,0-6,2.1-7.4,3.8s-1.8,4.3-1.8,6.1v19.1c0,3.4,1.3,5.7,2.9,7c2.3,1.9,3.6,2.5,6.4,2.6 c0.1,0,0.2,0,0.4,0c2.6,0,4.3-0.8,6.2-2.5c0.8-0.7,2.8-3.4,2.8-6.4l-0.1-19.7C757.2,199.6,753.1,195.2,748,195.2L748,195.2 L748,195.2z M750.1,224.3c0,1.2-1,2.1-2.2,2.1s-2.2-0.9-2.2-2.1v-19.9c0-1.2,1-2.1,2.2-2.1s2.2,0.9,2.2,2.1V224.3L750.1,224.3z M775.6,217.2c1.1-1.1,3.2-3.7,3.1-6.1v-2.6v-4.3c-0.8-5.8-4-8.7-9.7-9h-9.1v38.5h6.8v-13.9h1.9l3.9,13.9h7.7l-0.5-1.6L775.6,217.2 L775.6,217.2z M771.6,210.2c0,1.1-1,2.1-2.3,2.1h-2.5v-9.4h3.2c0.8,0,1.7,1,1.7,1.7v5.6H771.6z M835.5,213.9 c0.2-3.6-3.2-6.2-6.1-6.2c0,0,0,0-0.1,0c-3.8,0-6.1,2.7-6.2,6.2l-0.1,12.8c-0.3,3.6,2.3,7,5.9,7l0,0c3.6,0,6.7-3.2,6.5-6.5 L835.5,213.9L835.5,213.9z M830.5,227c0,0.7-0.5,1.2-1.2,1.2c-0.6,0-1.2-0.5-1.2-1.2v-13.1c0-0.7,0.5-1.2,1.2-1.2 c0.6,0,1.2,0.5,1.2,1.2V227L830.5,227z M931,195.2h-8.7l-5.1,10.9v-10.9H910l-0.2,38.5h7.2v-16.1l6.2,16.1h8.1l-9-22.7L931,195.2 L931,195.2z M838.2,233.7h5.2V223h4.8v-4.7h-4.9v-5h6.7v-5.2h-11.8V233.7L838.2,233.7z M900,213l-5.7-17.8h-7.7v38.5h7.4l0.1-18.4 l5.8,18.4h7.4v-38.5H900V213L900,213z M865.6,202.6v-7.4H847v7.4h5.7v0.1v31h7.4l-0.1-31.2L865.6,202.6L865.6,202.6z M869.4,195.2 l-0.1,0.6l-6.5,38h7.6l1.5-9h3.9l1.3,9h7.6l-6.4-38.5h-8.9V195.2z M872.5,218.3l1.4-7.9l1.1,7.9H872.5L872.5,218.3z M945.2,214 c-1.1-1-1.8-1.7-2.5-2.4c-0.6-0.6-1.3-1-1.9-1.7c-0.9-0.9-2.6-3.1-2.7-4.7c-0.1-0.9-0.2-1.7,0.6-2.8c0.4-0.5,0.9-0.7,1.4-0.7 c0.1,0,0.2,0,0.3,0c0.8,0.1,1.5,0.9,1.7,2.1l0.4,2.1l7-1c-0.1-0.5,0-2.5-0.5-3.6c-1.2-3.3-3.8-5.5-7-6.2c-0.7-0.1-1.4-0.2-2.1-0.2 c-1.3,0-2.6,0.2-4,0.7c-2.4,0.9-5.6,4.3-5.5,8.8c0.1,2.2,0,4.1,1.6,6.5c2,3.3,5.1,5.7,8.3,8.7c1.4,1.3,2.5,3.6,1.6,5.7 c-0.4,0.9-1.2,1.4-2,1.4c-0.5,0-1-0.2-1.5-0.6c-1.5-1.3-1.3-3.4-1.5-4.5l-7.1,0.1c-0.1,4.8,2,8.7,4.5,10.6c2.5,1.9,7.1,2,9.9,0.9 c1.9-0.7,5.2-4.3,5.7-8.5C950.5,220.3,947.5,216.2,945.2,214L945.2,214z M728.3,211.6l-2-16.5h-7.5l-1.8,16.5l-1.9-16.5h-7.7 l6.3,38.5h6.9l2.1-13.8l2.3,13.8h6.9l5.7-38.5H730L728.3,211.6L728.3,211.6z"></path> <g> <path class="st1" d="M200.8,218.9l-1.9,3.5v11.8h-6v-38.5h6v16.8l7.9-16.8h6l-8.4,17.1l8.4,21.3h-6.2L200.8,218.9z"></path> <path class="st1" d="M215.1,205c0-6.2,3.2-9.7,9.2-9.7c5.9,0,9.2,3.5,9.2,9.7v20c0,6.2-3.2,9.7-9.2,9.7c-5.9,0-9.2-3.5-9.2-9.7V205 z M221.1,225.3c0,2.7,1.2,3.8,3.1,3.8c1.9,0,3.1-1,3.1-3.8v-20.8c0-2.7-1.2-3.8-3.1-3.8c-1.9,0-3.1,1-3.1,3.8V225.3z"></path> <path class="st1" d="M254.8,239.4v-5.2h-12.9v5.2H236v-10.6h2.4c1-1.3,1.4-2.7,1.5-5l1.4-28.1h16.9v33.1h2.6v10.6H254.8z M245.8,223.7c-0.2,2.9-0.7,4.2-1.7,5.1h7.9v-27.6h-5.1L245.8,223.7z"></path> <path class="st1" d="M278.7,234.2h-6v-38.5h6v16.5h6.9v-16.5h6.2v38.5h-6.2v-16.5h-6.9V234.2z"></path> <path class="st1" d="M315.7,234.2h-6.1l-1-7h-7.4l-1,7h-5.6l6.2-38.5h8.8L315.7,234.2z M301.9,222h5.8l-2.9-19.5L301.9,222z"></path> </g> </svg> 