<?xml version="1.0" encoding="UTF-8"?> <!-- Generator: Adobe Illustrator 21.0.2, SVG Export Plug-In . SVG Version: 6.00 Build 0) --> <svg xmlns="http://www.w3.org/2000/svg" xmlns:xlink="http://www.w3.org/1999/xlink" id="Layer_1" x="0px" y="0px" viewBox="0 0 87.7 86.5" style="enable-background:new 0 0 87.7 86.5;" xml:space="preserve"> <style type="text/css"> .st0{fill:#E5A33E;} </style> <g> <g> <path class="st0" d="M61.4-98.6H37.1c-4.1,0-8,3.3-8.7,7.4l-4.3,24.3c-0.7,4.1,2,7.4,6.1,7.4h24.3c4.1,0,8-3.3,8.7-7.4l4.3-24.3 C68.3-95.3,65.5-98.6,61.4-98.6z M60.7-67c-0.5,2.6-2.9,4.8-5.6,4.8H30.7c-2.6,0-4.4-2.1-4-4.8l4.3-24.3c0.5-2.6,2.9-4.8,5.6-4.8 H61c2.6,0,4.4,2.1,4,4.8L60.7-67z"></path> </g> <g> <path class="st0" d="M47.5-88.9c-5.4,0-10.6,4.4-11.5,9.8s2.7,9.8,8.1,9.8s10.6-4.4,11.5-9.8S53-88.9,47.5-88.9z M44.5-71.9 c-4,0-6.6-3.2-5.9-7.2s4.5-7.2,8.5-7.2s6.6,3.2,5.9,7.2S48.5-71.9,44.5-71.9z"></path> </g> <g> <path class="st0" d="M59.8-92.5c1,0,1.7,0.8,1.5,1.8s-1.1,1.8-2.1,1.8s-1.7-0.8-1.5-1.8S58.8-92.5,59.8-92.5z"></path> </g> </g> <g> <path class="st0" d="M58.7,44.7c0,0,8-9,9.1-12c0.4-1.1,0-1.6-1.1-1.6c0,0-3.7,0-5.5,0c-1.3,0-1.8,0.5-2.3,1.4 c0,0-4.1,6.4-8.4,10.4c-1.4,1.3-2.1,1.7-2.7,1.7c-0.5,0-0.7-0.4-0.5-1.6L49,32.6c0.2-1.4,0.1-1.9-1.1-1.9h-8.9 c-0.7,0-1.2,0.4-1.3,0.9c-0.2,1.4,1.8,1.7,1.2,5.3l-1.3,7.6c-0.3,1.5-0.5,2.1-1.2,2.1c-1.9,0-5.2-6.6-6.5-14 c-0.2-1.5-0.8-1.9-2.2-1.9h-5.5c-0.8,0-1.5,0.5-1.6,1.4c-0.3,1.5,0.2,8.3,5.4,17.5c3.5,6.2,8.9,9.5,14.3,9.5c3.3,0,4.2-0.5,4.4-1.9 l0.8-4.7c0.2-1.2,0.8-1.7,1.4-1.7c0.8,0,2.1,0.2,4.6,3.3c3.1,3.6,3.1,5,5.1,5h6.2c0.6,0,1.3-0.3,1.4-1.4c0.2-1.4-1.1-3.9-3.4-6.8 c-0.8-1.5-2.4-3.2-2.9-3.9C57.5,46.1,57.9,45.6,58.7,44.7L58.7,44.7z"></path> </g> <g> <path class="st0" d="M147.3,37.2h3.7l0.6-3.6c0.3-1.6,0.7-4.1,2.2-5.6c1.6-1.8,4-2.9,6.3-2.7c2.2-0.1,4.5,0.1,6.6,0.7l-2,5.4 c-0.9-0.3-1.9-0.4-2.9-0.5c-1.5,0-2.8,0.5-3.1,2l-0.7,4.2h5.9l-1.4,5.4h-5.5l-3.3,18.7h-7l3.3-18.6h-3.7L147.3,37.2z"></path> </g> </svg> 