<?xml version="1.0" encoding="UTF-8"?> <!-- Generator: Adobe Illustrator 21.0.2, SVG Export Plug-In . SVG Version: 6.00 Build 0) --> <svg xmlns="http://www.w3.org/2000/svg" xmlns:xlink="http://www.w3.org/1999/xlink" id="WG_x5F_WoT_x5F_Logo_x5F_OneLevel_x5F_Simplified_x5F_Monochrome_x5F_1c_x5F_Eng" x="0px" y="0px" viewBox="0 0 226.6 20.2" style="enable-background:new 0 0 226.6 20.2;" xml:space="preserve"> <style type="text/css"> .st0{fill-rule:evenodd;clip-rule:evenodd;fill:none;} .st1{fill-rule:evenodd;clip-rule:evenodd;fill:#FFFFFF;} .st2{fill:#FFFFFF;} </style> <rect id="Save_Zone_1_" x="-211.4" y="191.8" class="st0" width="283.5" height="93.3"></rect> <path id="WG_x5F_WoT_x5F_Logo_x5F_OneLevel_x5F_Simplified_x5F_Monochrome_x5F_1c_x5F_Eng_4_" class="st1" d="M-60,222h-7.6 l-0.1,30.2h7.3c5,0,7.3-4.6,7.1-7.7l0-14.8C-53.1,225.3-56.4,222-60,222L-60,222z M-177.2,218.6l-6.8,6.9h9.5v27.7l3.3,3.3l3.3-3.3 v-27.7h9.5l-6.7-6.9H-177.2L-177.2,218.6z M-177.6,228.1h-6.4v15.5l4.9,4.9l4.6-4.5l-3.1-2.9V228.1L-177.6,228.1z M-154.8,245.2v-21 l-8.6-8.6h-15.4l-8.9,8.8v20.8l16.5,16.3L-154.8,245.2L-154.8,245.2z M-185.9,244.3V225l7.9-7.8h13.8l7.7,7.7v19.5l-14.7,14.6 L-185.9,244.3L-185.9,244.3z M-164.8,241.1l-2.9,2.9v0l4.5,4.5l4.9-4.9v-15.5h-6.4V241.1L-164.8,241.1z M-58.6,244.7 c0,0.9-0.7,1.6-1.5,1.6h-2V228h2c0.8,0,1.5,0.7,1.5,1.6V244.7L-58.6,244.7z M-77.1,222h-5.7l0,30.2h13l0-6h-7.3V222L-77.1,222z M-110.2,222C-110.2,222-110.2,222-110.2,222c-3.2,0-4.7,1.6-5.8,3c-1.1,1.3-1.4,3.3-1.4,4.8l0,15c0,2.7,1,4.5,2.2,5.5 c1.8,1.5,2.8,1.9,5,2c0.1,0,0.2,0,0.3,0c2.1,0,3.4-0.6,4.9-2c0.6-0.6,2.2-2.7,2.2-5l-0.1-15.4C-103,225.4-106.2,222-110.2,222 L-110.2,222L-110.2,222z M-108.6,244.9c0,0.9-0.8,1.7-1.7,1.7c-0.9,0-1.7-0.7-1.7-1.7l0-15.6c0-0.9,0.8-1.7,1.7-1.7 c0.9,0,1.7,0.7,1.7,1.7V244.9L-108.6,244.9z M-88.5,239.3c0.9-0.9,2.5-2.9,2.5-4.8l0-2l0-3.4c-0.6-4.6-3.1-6.9-7.6-7.1h-7.2l0,30.2 h5.3v-10.9h1.5l3,10.9h6l-0.4-1.3L-88.5,239.3L-88.5,239.3z M-91.6,233.8c0,0.9-0.8,1.6-1.8,1.6h-2V228h2.5c0.7,0,1.3,0.8,1.3,1.3 V233.8L-91.6,233.8z M-41.5,236.7c0.2-2.8-2.5-4.8-4.8-4.9c0,0,0,0,0,0c-3,0-4.8,2.1-4.9,4.9l-0.1,10c-0.2,2.8,1.8,5.5,4.6,5.5l0,0 c2.8,0,5.3-2.5,5.1-5.1V236.7L-41.5,236.7z M-45.5,247c0,0.5-0.4,0.9-0.9,0.9c-0.5,0-0.9-0.4-0.9-0.9l0-10.2c0-0.5,0.4-0.9,0.9-0.9 c0.5,0,0.9,0.4,0.9,0.9V247L-45.5,247z M33.4,222h-6.9l-4,8.5l0-8.5h-5.7l-0.2,30.2h5.7l0-12.6l4.9,12.6l6.4,0l-7.1-17.8L33.4,222 L33.4,222z M-39.4,252.3h4.1l0-8.4h3.8v-3.7h-3.9v-4l5.3,0v-4.1l-9.3,0L-39.4,252.3L-39.4,252.3z M9.1,236l-4.4-14h-6.1l0,30.2h5.8 l0.1-14.4L9,252.3h5.8V222H9.1L9.1,236L9.1,236z M-17.9,227.8l0-5.8h-14.6v5.8h4.5v0.1l0,24.3h5.8l-0.1-24.5L-17.9,227.8 L-17.9,227.8z M-14.9,222l-0.1,0.5l-5.1,29.8h6l1.2-7.1l3,0l1,7.1h6L-7.9,222H-14.9L-14.9,222z M-12.5,240.1l1.1-6.2l0.9,6.2H-12.5 L-12.5,240.1z M44.6,236.8c-0.9-0.8-1.4-1.4-2-1.8c-0.5-0.4-1-0.8-1.5-1.3c-0.7-0.7-2.1-2.4-2.1-3.7c0-0.7-0.1-1.3,0.5-2.2 c0.3-0.4,0.7-0.5,1.1-0.5c0.1,0,0.2,0,0.3,0c0.6,0.1,1.2,0.7,1.4,1.7l0.3,1.6l5.5-0.8c0-0.4,0-1.9-0.4-2.9c-0.9-2.6-2.9-4.3-5.5-4.9 c-0.5-0.1-1.1-0.2-1.6-0.2c-1,0-2,0.2-3.1,0.5c-1.9,0.7-4.4,3.4-4.3,6.9c0.1,1.7,0,3.2,1.2,5.1c1.6,2.6,4,4.5,6.5,6.8 c1.1,1,2,2.8,1.3,4.4c-0.3,0.7-0.9,1.1-1.6,1.1c-0.4,0-0.8-0.2-1.2-0.5c-1.1-1-1-2.7-1.2-3.6l-5.6,0.1c0,3.7,1.6,6.8,3.5,8.3 c1.9,1.5,5.6,1.5,7.8,0.7c1.5-0.6,4.1-3.4,4.4-6.6C48.7,241.7,46.4,238.5,44.6,236.8L44.6,236.8z M-125.7,234.9l-1.6-12.9h-5.9 l-1.4,12.9L-136,222h-6l4.9,30.2h5.4l1.7-10.9l1.8,10.9h5.4l4.5-30.2h-6L-125.7,234.9L-125.7,234.9z"></path> <g> <path class="st2" d="M8.4,11.6L8,13.9c-0.5,2.7-2.1,4.2-4.7,4.2c-2.6,0-3.7-1.5-3.2-4.2l1.5-8.7c0.5-2.7,2.1-4.2,4.7-4.2 c2.6,0,3.7,1.5,3.2,4.2L9.2,6.8H6.7L7.1,5C7.3,3.8,6.8,3.3,6,3.3C5.1,3.3,4.5,3.8,4.3,5L2.7,14c-0.2,1.2,0.2,1.6,1.1,1.6 c0.8,0,1.4-0.4,1.7-1.6l0.4-2.4H8.4z"></path> <path class="st2" d="M8.7,15.5c1.2,0,1.6-0.2,1.9-1.7l2.7-12.7h7.5l-3,16.8h-2.7l2.5-14.4h-2.3l-2.1,10.2c-0.6,3.1-2,4.3-4.6,4.3 H8.3L8.7,15.5z"></path> <path class="st2" d="M23.9,8.2h3.6l-0.4,2.4h-3.6l-0.9,4.9h4.6l-0.4,2.4h-7.2l3-16.8h7.2l-0.4,2.4h-4.6L23.9,8.2z"></path> <path class="st2" d="M35.8,20.2l0.4-2.3h-5.6l-0.4,2.3h-2.6l0.8-4.6h1c0.6-0.6,0.8-1.2,1-2.2l2.8-12.3h7.4l-2.5,14.4h1.2l-0.8,4.6 H35.8z M33.1,13.3c-0.3,1.3-0.6,1.8-1.1,2.2h3.5l2.1-12h-2.2L33.1,13.3z"></path> <path class="st2" d="M42.9,17.9h-2.7l3-16.8h2.4l-1.9,10.6L45.3,8l3.4-6.9h2.9l-3,16.8h-2.4l2.1-11.8l-1.8,4.1L42.9,17.9z"></path> <path class="st2" d="M61.5,5.2c0.3-1.5-0.2-1.9-1-1.9c-0.8,0-1.5,0.5-1.7,1.7l-0.2,1.4h-2.4l0.2-1.2c0.5-2.7,2-4.2,4.6-4.2 c2.6,0,3.7,1.5,3.2,4.2l-0.1,0.4C63.8,7.4,63,8.5,61.6,9c1.2,0.6,1.5,1.8,1.2,3.5l-0.2,1.3c-0.5,2.7-2.1,4.2-4.7,4.2 c-2.6,0-3.7-1.5-3.2-4.2l0.3-1.8h2.5l-0.4,2c-0.2,1.2,0.2,1.7,1.1,1.7c0.8,0,1.4-0.4,1.7-1.9l0.2-1.3c0.3-1.6-0.2-2.1-1.4-2.1h-0.6 l0.4-2.4h0.8c1,0,1.7-0.4,1.9-1.8L61.5,5.2z"></path> <path class="st2" d="M72.1,17.9h-2.7l0.1-3h-3.2l-1,3h-2.4l5.7-16.8h3.9L72.1,17.9z M67,12.6h2.5l0.2-8.5L67,12.6z"></path> <path class="st2" d="M83.6,0.9c2.6,0,3.6,1.5,3.1,4.2l-0.1,0.5h-2.5L84.3,5c0.2-1.2-0.2-1.7-1-1.7c-0.8,0-1.4,0.5-1.6,1.7 c-0.6,3.5,4.4,4.1,3.6,8.9c-0.5,2.7-2.1,4.2-4.7,4.2c-2.6,0-3.7-1.5-3.2-4.2l0.2-1H80L79.8,14c-0.2,1.2,0.2,1.6,1.1,1.6 c0.8,0,1.4-0.4,1.7-1.6c0.6-3.5-4.4-4.1-3.6-8.9C79.4,2.4,81,0.9,83.6,0.9z"></path> <path class="st2" d="M90.5,5.7l-2.1,12.2h-2.4l3-16.8h3.3l0.9,10.1l1.8-10.1h2.4l-3,16.8h-2.7L90.5,5.7z"></path> <path class="st2" d="M98.9,1.1h2.6l-3,16.8H96L98.9,1.1z"></path> <path class="st2" d="M109.2,11.6l-0.4,2.2c-0.5,2.7-2.1,4.2-4.7,4.2c-2.6,0-3.7-1.5-3.2-4.2l1.5-8.7c0.5-2.7,2.1-4.2,4.7-4.2 c2.6,0,3.7,1.5,3.2,4.2L110,6.8h-2.5l0.3-1.8c0.2-1.2-0.2-1.7-1.1-1.7c-0.8,0-1.4,0.5-1.7,1.7l-1.6,9.1c-0.2,1.2,0.2,1.6,1.1,1.6 c0.8,0,1.4-0.4,1.7-1.6l0.4-2.4H109.2z"></path> <path class="st2" d="M114.2,11.2l-1.1,1.5l-0.9,5.2h-2.6l3-16.8h2.6l-1.3,7.3l4.7-7.3h2.6l-5,7.5l2,9.3h-2.7L114.2,11.2z"></path> <path class="st2" d="M123.9,8.2h3.6l-0.4,2.4h-3.6l-0.9,4.9h4.6l-0.4,2.4h-7.2l3-16.8h7.2l-0.4,2.4h-4.6L123.9,8.2z"></path> <path class="st2" d="M133.7,17.9c-0.1-0.4-0.1-0.7,0.1-2.1l0.5-2.6c0.3-1.6-0.2-2.1-1.4-2.1H132l-1.2,6.8h-2.6l3-16.8h4 c2.7,0,3.7,1.3,3.2,3.9l-0.2,1.3c-0.3,1.7-1.1,2.9-2.3,3.4c1.2,0.6,1.4,1.8,1.1,3.6l-0.5,2.6c-0.1,0.8-0.2,1.4-0.1,2H133.7z M133.4,3.5l-0.9,5.2h1c1,0,1.7-0.4,1.9-1.8l0.3-1.7c0.2-1.2-0.1-1.7-1-1.7H133.4z"></path> <path class="st2" d="M144.4,0.9c2.6,0,3.6,1.5,3.1,4.2l-0.1,0.5H145l0.1-0.7c0.2-1.2-0.2-1.7-1-1.7c-0.8,0-1.4,0.5-1.6,1.7 c-0.6,3.5,4.4,4.1,3.6,8.9c-0.5,2.7-2.1,4.2-4.7,4.2c-2.6,0-3.7-1.5-3.2-4.2l0.2-1h2.5l-0.2,1.2c-0.2,1.2,0.2,1.6,1.1,1.6 c0.8,0,1.4-0.4,1.7-1.6c0.6-3.5-4.4-4.1-3.6-8.9C140.2,2.4,141.8,0.9,144.4,0.9z"></path> <path class="st2" d="M154.4,0c2.8,0,4.5,2.1,4,5c-0.5,2.9-3,5-5.8,5s-4.5-2.1-4-5C149.2,2.1,151.7,0,154.4,0z M152.8,9 c2.2,0,4.2-1.7,4.6-4c0.4-2.3-0.9-4-3.2-4s-4.2,1.7-4.6,4C149.3,7.3,150.6,9,152.8,9z M153.7,8c0-0.2,0-0.3,0.1-0.8l0.1-0.6 c0.1-0.6-0.1-0.9-0.6-0.9H153L152.5,8h-1.1l1.1-6h1.6c1.1,0,1.5,0.5,1.3,1.6l0,0.1c-0.1,0.7-0.4,1.2-1,1.4c0.5,0.2,0.6,0.7,0.5,1.4 l-0.1,0.6c-0.1,0.3-0.1,0.6,0,0.8H153.7z M153.4,3l-0.3,1.7h0.4c0.4,0,0.7-0.2,0.8-0.7l0-0.3c0.1-0.5,0-0.7-0.4-0.7H153.4z"></path> <path class="st2" d="M171.3,5l-0.1,0.6c-0.3,1.7-1,2.8-2.3,3.4c1.3,0.6,1.6,1.8,1.3,3.6l-0.2,1.4c-0.5,2.6-2.1,4-4.7,4h-4.2l3-16.8 h4C170.8,1.1,171.7,2.4,171.3,5z M165.1,10.3l-0.9,5.2h1.5c0.9,0,1.4-0.4,1.7-1.7l0.3-1.5c0.3-1.6-0.1-2-1.3-2H165.1z M166.3,3.5 l-0.8,4.4h1c1,0,1.7-0.4,1.9-1.8l0.2-0.9c0.2-1.2-0.1-1.7-1-1.7H166.3z"></path> <path class="st2" d="M175.1,8.2h3.6l-0.4,2.4h-3.6l-0.9,4.9h4.6l-0.4,2.4h-7.2l3-16.8h7.2l-0.4,2.4h-4.6L175.1,8.2z"></path> <path class="st2" d="M182.4,1.1h2.6l-2.5,14.4h4.3l-0.4,2.4h-7L182.4,1.1z"></path> <path class="st2" d="M196.5,17.9h-2.7l0.1-3h-3.2l-1,3h-2.4l5.7-16.8h3.9L196.5,17.9z M191.4,12.6h2.5l0.2-8.5L191.4,12.6z"></path> <path class="st2" d="M203.3,17.9c-0.1-0.4-0.1-0.7,0.1-2.1l0.5-2.6c0.3-1.6-0.2-2.1-1.4-2.1h-0.9l-1.2,6.8h-2.6l3-16.8h4 c2.7,0,3.7,1.3,3.2,3.9l-0.2,1.3c-0.3,1.7-1.1,2.9-2.3,3.4c1.2,0.6,1.4,1.8,1.1,3.6l-0.5,2.6c-0.1,0.8-0.2,1.4-0.1,2H203.3z M203,3.5l-0.9,5.2h1c1,0,1.7-0.4,1.9-1.8l0.3-1.7c0.2-1.2-0.1-1.7-1-1.7H203z"></path> <path class="st2" d="M212.8,1.1l-2.3,13c-0.2,1.2,0.2,1.6,1.1,1.6s1.4-0.4,1.7-1.6l2.3-13h2.5l-2.3,12.8c-0.5,2.7-2.1,4.2-4.7,4.2 s-3.7-1.5-3.2-4.2l2.3-12.8H212.8z"></path> <path class="st2" d="M223.4,0.9c2.6,0,3.6,1.5,3.1,4.2l-0.1,0.5h-2.5l0.1-0.7c0.2-1.2-0.2-1.7-1-1.7c-0.8,0-1.4,0.5-1.6,1.7 c-0.6,3.5,4.4,4.1,3.6,8.9c-0.5,2.7-2.1,4.2-4.7,4.2c-2.6,0-3.7-1.5-3.2-4.2l0.2-1h2.5l-0.2,1.2c-0.2,1.2,0.2,1.6,1.1,1.6 c0.8,0,1.4-0.4,1.7-1.6c0.6-3.5-4.4-4.1-3.6-8.9C219.2,2.4,220.8,0.9,223.4,0.9z"></path> </g> </svg> 