<?xml version="1.0" encoding="UTF-8"?> <!-- Generator: Adobe Illustrator 21.0.2, SVG Export Plug-In . SVG Version: 6.00 Build 0) --> <svg xmlns="http://www.w3.org/2000/svg" xmlns:xlink="http://www.w3.org/1999/xlink" id="Layer_1" x="0px" y="0px" viewBox="0 0 192.2 41.2" style="enable-background:new 0 0 192.2 41.2;" xml:space="preserve"> <style type="text/css"> .st0{fill:#FFFFFF;} </style> <g> <g> <path class="st0" d="M87.6-72.9h3.7v-3.6c0-1.6,0-4.1,1.2-5.6c1.3-1.8,3.5-2.9,5.8-2.7c2.2-0.1,4.5,0.1,6.7,0.7l-1,5.4 c-1-0.3-2-0.4-3-0.4c-1.5,0-2.7,0.5-2.7,2v4.2h5.9l-0.4,5.4h-5.5v18.7h-7v-18.7h-3.7V-72.9z"></path> </g> <g> <path class="st0" d="M96.2-23.6C72.4-23.6,53-43,53-66.8s19.4-43.3,43.2-43.3s43.2,19.4,43.2,43.3C139.5-43,120.1-23.6,96.2-23.6z M96.2-109.1C73-109.1,54-90.1,54-66.8s19,42.2,42.2,42.2s42.2-19,42.2-42.2S119.5-109.1,96.2-109.1z"></path> </g> </g> <g> <g> <path class="st0" d="M204.2-30.7c-23.8,0-43.2-19.4-43.2-43.2s19.4-43.2,43.2-43.2s43.2,19.4,43.2,43.2S228.1-30.7,204.2-30.7z M204.2-116.2c-23.3,0-42.2,19-42.2,42.2s19,42.3,42.2,42.3s42.2-19,42.2-42.2S227.5-116.2,204.2-116.2z"></path> </g> <g> <g> <path class="st0" d="M216.4-93.9h-24.3c-4.1,0-7.4,3.3-7.4,7.4v24.3c0,4.1,3.3,7.4,7.4,7.4h24.3c4.1,0,7.4-3.3,7.4-7.4v-24.3 C223.8-90.6,220.5-93.9,216.4-93.9z M221.2-62.3c0,2.6-2.1,4.8-4.8,4.8h-24.3c-2.6,0-4.8-2.1-4.8-4.8v-24.3 c0-2.6,2.1-4.8,4.8-4.8h24.3c2.6,0,4.8,2.1,4.8,4.8V-62.3z"></path> </g> <g> <path class="st0" d="M204.2-84.2c-5.4,0-9.8,4.4-9.8,9.8s4.4,9.8,9.8,9.8s9.8-4.4,9.8-9.8S209.7-84.2,204.2-84.2z M204.2-67.2 c-4,0-7.2-3.2-7.2-7.2s3.2-7.2,7.2-7.2s7.2,3.2,7.2,7.2S208.2-67.2,204.2-67.2z"></path> </g> <g> <circle class="st0" cx="215.8" cy="-86" r="1.8"></circle> </g> </g> </g> <g> <path class="st0" d="M39.2,181.8h-4.8l5.3-30.3h15l-5.3,30.3h-4.9l4.6-26h-5.4L39.2,181.8z"></path> <path class="st0" d="M71.1,158.9l-0.7,3.9c-0.9,4.9-3.7,7.5-8.4,7.5h-2.3l-2,11.4h-4.8l5.3-30.3h7 C70.1,151.4,71.9,154.1,71.1,158.9z M62.3,155.8L60.5,166h2.3c1.5,0,2.5-0.7,2.8-2.9l0.8-4.5c0.4-2.2-0.3-2.9-1.8-2.9H62.3z"></path> <path class="st0" d="M84.7,181.8h-4.8l0.1-5.5h-5.9l-1.8,5.5H68l10.2-30.3h7L84.7,181.8z M75.5,172.1h4.6l0.4-15.3L75.5,172.1z"></path> <path class="st0" d="M105.3,158.4l-0.2,1.1c-0.6,3.1-1.9,5.1-4.2,6.1c2.4,1,3,3.3,2.4,6.5l-0.4,2.5c-0.8,4.7-3.7,7.2-8.5,7.2h-7.5 l5.3-30.3h7.2C104.4,151.4,106.1,153.7,105.3,158.4z M94.1,168.1l-1.6,9.3h2.7c1.6,0,2.6-0.7,3-3l0.5-2.6c0.5-2.8-0.3-3.7-2.4-3.7 H94.1z M96.3,155.8l-1.4,8h1.9c1.8,0,3-0.8,3.4-3.2l0.3-1.7c0.4-2.2-0.2-3.1-1.9-3.1H96.3z"></path> <path class="st0" d="M109.4,181.8h-4.9l5.3-30.3h4.2l-3.4,19.2l2.9-6.7l6.1-12.5h5.2l-5.3,30.3h-4.3l3.8-21.4l-3.3,7.5L109.4,181.8 z"></path> <path class="st0" d="M122.4,177.5c2.2,0,2.9-0.3,3.5-3.1l4.8-22.9h13.5l-5.3,30.3H134l4.6-26h-4.2l-3.8,18.3 c-1.2,5.5-3.5,7.7-8.3,7.7h-0.7L122.4,177.5z"></path> <path class="st0" d="M157.9,181.8h-4.8l0.1-5.5h-5.9l-1.8,5.5h-4.4l10.2-30.3h7L157.9,181.8z M148.8,172.1h4.6l0.4-15.3 L148.8,172.1z"></path> <path class="st0" d="M182.3,181.8h-4.8l0.1-5.5h-5.9l-1.8,5.5h-4.4l10.2-30.3h7L182.3,181.8z M173.1,172.1h4.6l0.4-15.3 L173.1,172.1z"></path> <path class="st0" d="M192.9,169.7l-2,2.8l-1.6,9.3h-4.8l5.3-30.3h4.8l-2.3,13.2l8.6-13.2h4.8l-9,13.5l3.7,16.8h-4.9L192.9,169.7z"></path> <path class="st0" d="M207.8,151.4h4.8l-4.6,26h5.4l4.6-26h4.9l-4.6,26.1h2.1l-1.5,8.3h-4.6l0.7-4.1h-12.5L207.8,151.4z"></path> <path class="st0" d="M227,181.8h-4.9l5.3-30.3h4.2l-3.4,19.2l2.9-6.7l6.1-12.5h5.2l-5.3,30.3H233l3.8-21.4l-3.3,7.5L227,181.8z"></path> <path class="st0" d="M245.5,181.8h-4.9l5.3-30.3h4.2l-3.4,19.2l2.9-6.7l6.1-12.5h5.2l-5.3,30.3h-4.3l3.8-21.4l-3.3,7.5L245.5,181.8 z"></path> </g> <g> <path class="st0" d="M3.1,14C4,9.2,7,6.4,11.7,6.4c4.7,0,6.7,2.8,5.9,7.6l-2.8,15.8c-0.9,4.9-3.9,7.6-8.6,7.6 c-4.7,0-6.7-2.8-5.9-7.6L3.1,14z M5.1,30.1c-0.4,2.2,0.4,3,1.9,3s2.6-0.8,3-3l2.9-16.4c0.4-2.2-0.4-3-1.9-3s-2.6,0.8-3,3L5.1,30.1z "></path> <path class="st0" d="M16.7,37.1L22,6.8h13.3l-0.8,4.3H26l-1.4,7.8h2.8c4.8,0,6.7,2.6,5.9,7.5l-0.6,3.2c-0.9,4.9-3.7,7.5-8.5,7.5 H16.7z M25,32.8c1.5,0,2.5-0.7,2.9-2.9l0.7-3.9c0.4-2.2-0.4-2.9-1.9-2.9h-2.8l-1.7,9.6H25z"></path> <path class="st0" d="M46.2,28.3l7-21.5h6.6l-5.3,30.3h-4.5l3.8-21.8l-7.1,21.8h-4.5l0.2-21.5l-3.8,21.5h-4.2l5.3-30.3h6.6 L46.2,28.3z"></path> <path class="st0" d="M65.9,19.5h6.5l-0.8,4.3h-6.5l-1.6,8.9h8.2L71,37.1H58l5.3-30.3h13l-0.8,4.3h-8.2L65.9,19.5z"></path> <path class="st0" d="M78.8,37.1H74l5.3-30.3h4.8l-2.3,13h5.4l2.3-13h4.9L89,37.1h-4.9l2.3-13H81L78.8,37.1z"></path> <path class="st0" d="M91.6,37.1c0.7-1.1,0.9-2.2,1.2-3.7l0.8-4.7c0.6-3.2,1.7-5.5,4.3-6.5c-1.9-1-2.6-3-2-6.2l0.4-2.4 c0.8-4.7,3.4-7,8.3-7h7.2l-5.3,30.3h-4.8l2.2-12.4h-1.6c-2.2,0-3.3,1-3.8,3.9l-0.8,4.8c-0.4,2.5-0.7,2.9-1.1,3.7H91.6z M104,11.1 c-1.7,0-2.6,1-3,3.1l-0.5,3c-0.4,2.4,0.5,3.2,2.3,3.2h1.9l1.6-9.3H104z"></path> <path class="st0" d="M114.8,37.1h-4.9l5.3-30.3h4.2L116.1,26l2.9-6.7l6.1-12.5h5.2L125,37.1h-4.3l3.8-21.4l-3.3,7.5L114.8,37.1z M126.2,0c-0.4,1.6-1.2,2-2.5,2c-1.3,0-1.8-0.4-1.7-2h-2.9c-0.4,2.9,0.8,4.8,4.1,4.8c3.4,0,5.4-1.9,5.9-4.8H126.2z"></path> <path class="st0" d="M143.6,25l-2,2.8l-1.6,9.3h-4.8l5.3-30.3h4.8L143,20l8.6-13.2h4.8l-9,13.5l3.7,16.8h-4.9L143.6,25z"></path> <path class="st0" d="M156.8,14c0.9-4.9,3.9-7.6,8.6-7.6c4.7,0,6.7,2.8,5.9,7.6l-2.8,15.8c-0.9,4.9-3.9,7.6-8.6,7.6 c-4.7,0-6.7-2.8-5.9-7.6L156.8,14z M158.8,30.1c-0.4,2.2,0.4,3,1.9,3s2.6-0.8,3-3l2.9-16.4c0.4-2.2-0.4-3-1.9-3s-2.6,0.8-3,3 L158.8,30.1z"></path> <path class="st0" d="M183.4,41.2l0.7-4.1h-10.2l-0.7,4.1h-4.6l1.5-8.3h1.9c1-1,1.5-2.2,1.9-3.9l5-22.1h13.3l-4.6,26.1h2.1l-1.5,8.3 H183.4z M178.4,28.8c-0.5,2.3-1.1,3.3-2.1,4h6.2l3.8-21.8h-4L178.4,28.8z"></path> </g> </svg> 