<?xml version="1.0" encoding="UTF-8"?> <!-- Generator: Adobe Illustrator 21.0.2, SVG Export Plug-In . SVG Version: 6.00 Build 0) --> <svg xmlns="http://www.w3.org/2000/svg" xmlns:xlink="http://www.w3.org/1999/xlink" id="Layer_1" x="0px" y="0px" viewBox="0 0 25.9 24.9" style="enable-background:new 0 0 25.9 24.9;" xml:space="preserve"> <style type="text/css"> .st0{fill:#E5A33E;} </style> <g> <g> <path class="st0" d="M16.1,24.8H1.4L5,4.3C5.5,1.9,7.7,0,10.1,0h15.7l-3.5,19.6C21.8,22.5,19,24.8,16.1,24.8z M2.6,23.8h13.5 c2.4,0,4.8-2,5.2-4.4L24.6,1H10.1C8.2,1,6.4,2.6,6,4.5L2.6,23.8z"></path> </g> <g> <g> <path class="st0" d="M11.7,10.4l-0.2,1.1c-0.2,1.3-1,2.1-2.3,2.1H8.6L8,16.7H6.7l1.5-8.4h1.9C11.4,8.3,12,9.1,11.7,10.4z M9.3,9.5l-0.5,2.8h0.6c0.4,0,0.7-0.2,0.8-0.8l0.2-1.3c0.1-0.6-0.1-0.8-0.5-0.8H9.3z"></path> </g> <g> <path class="st0" d="M12.7,8.3h2.1c1.3,0,1.8,0.7,1.6,2.1l-0.7,4.2c-0.2,1.3-1,2.1-2.3,2.1h-2.1L12.7,8.3z M13.8,9.5l-1.1,6h0.7 c0.4,0,0.7-0.2,0.8-0.8l0.8-4.4c0.1-0.6-0.1-0.8-0.5-0.8H13.8z"></path> </g> <g> <path class="st0" d="M18.3,12.1H20l-0.2,1.2H18l-0.6,3.5h-1.3l1.5-8.4h3.5l-0.2,1.2h-2.2L18.3,12.1z"></path> </g> </g> </g> </svg> 