<?xml version="1.0" encoding="UTF-8"?> <!-- Generator: Adobe Illustrator 21.0.2, SVG Export Plug-In . SVG Version: 6.00 Build 0) --> <svg xmlns="http://www.w3.org/2000/svg" xmlns:xlink="http://www.w3.org/1999/xlink" id="Layer_1" x="0px" y="0px" viewBox="0 0 124.5 30.7" style="enable-background:new 0 0 124.5 30.7;" xml:space="preserve"> <style type="text/css"> .st0{fill:#E3A248;} </style> <g> <path class="st0" d="M5.2,30.5H0.4L5.7,0.2h15l-5.3,30.3h-4.9l4.6-26H9.7L5.2,30.5z"></path> <path class="st0" d="M37.1,7.6l-0.7,3.9C35.5,16.4,32.7,19,28,19h-2.3l-2,11.4h-4.8l5.3-30.3h7C36.1,0.1,37.9,2.8,37.1,7.6z M28.3,4.5l-1.8,10.2h2.3c1.5,0,2.5-0.7,2.8-2.9l0.8-4.5c0.4-2.2-0.3-2.9-1.8-2.9L28.3,4.5L28.3,4.5z"></path> <path class="st0" d="M50.7,30.5h-4.8L46,25h-5.9l-1.8,5.5H34L44.2,0.2h7L50.7,30.5z M41.5,20.8h4.6l0.4-15.3L41.5,20.8z"></path> <path class="st0" d="M71.3,7.1l-0.2,1.1c-0.6,3.1-1.9,5.1-4.2,6.1c2.4,1,3,3.3,2.4,6.5l-0.4,2.5c-0.8,4.7-3.7,7.2-8.5,7.2h-7.5 l5.3-30.3h7.2C70.4,0.1,72.1,2.4,71.3,7.1z M60.1,16.8l-1.6,9.3h2.7c1.6,0,2.6-0.7,3-3l0.5-2.6c0.5-2.8-0.3-3.7-2.4-3.7H60.1z M62.3,4.5l-1.4,8h1.9c1.8,0,3-0.8,3.4-3.2l0.3-1.7c0.4-2.2-0.2-3.1-1.9-3.1H62.3z"></path> <path class="st0" d="M75.4,30.5h-4.9l5.3-30.3H80l-3.4,19.2l2.9-6.7l6.1-12.5h5.2l-5.3,30.3h-4.3L85,9.1l-3.3,7.5L75.4,30.5z"></path> <path class="st0" d="M88.4,26.2c2.2,0,2.9-0.3,3.5-3.1l4.8-22.9h13.5l-5.3,30.3H100l4.6-26h-4.2l-3.8,18.3 c-1.2,5.5-3.5,7.7-8.3,7.7h-0.7L88.4,26.2z"></path> <path class="st0" d="M123.9,30.5h-4.8l0.1-5.5h-5.9l-1.8,5.5h-4.4l10.2-30.3h7L123.9,30.5z M114.8,20.8h4.6l0.4-15.3L114.8,20.8z"></path> </g> </svg> 