<?xml version="1.0" encoding="UTF-8"?> <!-- Generator: Adobe Illustrator 21.0.2, SVG Export Plug-In . SVG Version: 6.00 Build 0) --> <svg xmlns="http://www.w3.org/2000/svg" xmlns:xlink="http://www.w3.org/1999/xlink" id="Layer_1" x="0px" y="0px" viewBox="0 0 57.1 9.7" style="enable-background:new 0 0 57.1 9.7;" xml:space="preserve"> <style type="text/css"> .st0{fill:#E5A33E;} </style> <g> <g> <path class="st0" d="M1.3,8.6H0l1.4-8.5h4.2L4.1,8.6H2.7l1.4-7.3H2.6L1.3,8.6z"></path> </g> <g> <path class="st0" d="M6,2.1C6.2,0.7,7.1,0,8.4,0s1.9,0.8,1.7,2.1L9.3,6.5C9.1,7.9,8.2,8.6,6.9,8.6S5,7.8,5.2,6.5L6,2.1z M6.6,6.6 C6.5,7.2,6.7,7.4,7.1,7.4s0.7-0.2,0.8-0.8L8.7,2c0.1-0.6-0.1-0.8-0.5-0.8S7.5,1.4,7.4,2L6.6,6.6z"></path> </g> <g> <path class="st0" d="M9.7,7.4c0.6,0,0.8-0.1,1-0.9l1.4-6.4h3.8l-1.5,8.5H13l1.2-7.3H13l-1.1,5.1c-0.3,1.6-1,2.2-2.3,2.2H9.4 L9.7,7.4z"></path> </g> <g> <path class="st0" d="M18.6,6.4c-0.6,1.5-1.2,2.3-3.1,2.2l0.2-1.2c0.7,0,1.1-0.1,1.3-0.7V6.6l-0.6-6.5h1.3L17.9,3L18,5l0.7-2 l1.1-2.9h1.4L18.6,6.4z"></path> </g> <g> <path class="st0" d="M25.9,0.1l-1.5,8.5h-1.3l0.6-3.4c-0.3,0.3-0.9,0.5-1.2,0.5c-1.1,0-1.5-0.8-1.3-2l0.6-3.6h1.3l-0.7,3.5 c-0.1,0.6,0.2,0.8,0.6,0.8s0.7-0.3,0.8-0.9L24.4,0L25.9,0.1L25.9,0.1z"></path> </g> <g> <path class="st0" d="M26.6,8.6h-1.4l1.5-8.5h1.2L27,5.5l0.8-1.9l1.6-3.5h1.5l-1.5,8.5h-1.2l1.1-6l-0.9,2.1L26.6,8.6z"></path> </g> <g> <path class="st0" d="M31.5,0.1h4.1l-0.2,1.2H34l-1.3,7.3h-1.3l1.3-7.3h-1.4L31.5,0.1z"></path> </g> <g> <path class="st0" d="M34.7,8.6l1.5-8.5h1.3L37,3.3h0.6c1.3,0,1.9,0.7,1.6,2.1L39,6.5c-0.2,1.4-1,2.1-2.4,2.1 C36.6,8.6,34.7,8.6,34.7,8.6z M36.9,7.4c0.4,0,0.7-0.2,0.8-0.8l0.2-1.3c0.1-0.6-0.1-0.8-0.5-0.8h-0.6l-0.5,2.9H36.9z"></path> </g> <g> <path class="st0" d="M43.7,5.2L43.1,6l-0.5,2.6h-1.2l1.5-8.5h1.3l-0.7,3.7l2.4-3.7h1.3l-2.5,3.8l1,4.7h-1.3L43.7,5.2z"></path> </g> <g> <path class="st0" d="M47.2,2.1C47.4,0.7,48.3,0,49.6,0s1.9,0.8,1.7,2.1l-0.8,4.4c-0.2,1.4-1.1,2.1-2.4,2.1s-1.9-0.8-1.7-2.1 L47.2,2.1z M47.8,6.6c-0.1,0.6,0.1,0.8,0.5,0.8s0.7-0.2,0.8-0.8L49.9,2c0.1-0.6-0.1-0.8-0.5-0.8S48.7,1.4,48.6,2L47.8,6.6z"></path> </g> <g> <path class="st0" d="M54.7,9.7l0.2-1.1H52l-0.2,1.1h-1.3l0.4-2.3h0.5c0.3-0.3,0.4-0.6,0.5-1.1l1.5-6.2h3.7l-1.3,7.3h0.6L56,9.7 H54.7z M53.3,6.3c-0.2,0.6-0.3,0.9-0.6,1.1h1.7l1.1-6.1h-1.1L53.3,6.3z"></path> </g> </g> </svg> 