<?xml version="1.0" encoding="UTF-8"?> <!-- Generator: Adobe Illustrator 21.0.2, SVG Export Plug-In . SVG Version: 6.00 Build 0) --> <svg xmlns="http://www.w3.org/2000/svg" xmlns:xlink="http://www.w3.org/1999/xlink" x="0px" y="0px" viewBox="0 0 258.8 213.3" style="enable-background:new 0 0 258.8 213.3;" xml:space="preserve"> <style type="text/css"> .st0{fill:#FFFFFF;} .st1{fill:#E2A148;} .st2{clip-path:url(#SVGID_2_);fill:#95C13D;} .st3{clip-path:url(#SVGID_4_);fill:#95C13D;} .st4{clip-path:url(#SVGID_6_);} .st5{clip-path:url(#SVGID_12_);} .st6{clip-path:url(#SVGID_13_);} .st7{clip-path:url(#SVGID_14_);} .st8{clip-path:url(#SVGID_15_);} .st9{clip-path:url(#SVGID_16_);fill:#95C13D;} .st10{clip-path:url(#SVGID_18_);fill:#383B40;} .st11{clip-path:url(#SVGID_20_);fill:#95C13D;} .st12{clip-path:url(#SVGID_22_);fill:#95C13D;} .st13{clip-path:url(#SVGID_24_);fill:#95C13D;} .st14{fill:#95C13D;} </style> <g id="Layer_1"> <path class="st0" d="M21.8,48.2v-5.6H7.7v5.6H1.2V36.6h2.5c1.2-1.5,1.5-3,1.6-5.4L6.8,0.5h18.5v36.2h2.9v11.6h-6.4V48.2z M11.9,31 c-0.2,3.2-0.7,4.6-1.9,5.6h8.6V6.5H13L11.9,31z"></path> <path class="st0" d="M53.3,42.5h-6.7l-1.2-7.6h-8.1l-1.2,7.6h-6l6.8-42h9.7L53.3,42.5z M38.2,29.2h6.4L41.4,8L38.2,29.2z"></path> <path class="st0" d="M74.9,10.8v5.4c0,6.7-3.3,10.4-9.9,10.4h-3v15.8h-6.6V0.5h9.8C71.6,0.5,74.9,4.1,74.9,10.8z M62,6.5v14.2h3.1 c2.1,0,3.3-1,3.3-3.9v-6.4c0-3-1.2-3.9-3.3-3.9C65.1,6.5,62,6.5,62,6.5z"></path> <path class="st0" d="M83.6,42.5h-6.8v-42h5.8v26.6l2.4-9.2l5.4-17.3h7.2v42h-5.9V12.9L89,23.2L83.6,42.5z"></path> <path class="st0" d="M99.6,0.5H120v6h-7v36h-6.6v-36h-6.9L99.6,0.5L99.6,0.5z"></path> <path class="st1" d="M137.4,10.8c0-3.8-1.3-4.8-3.4-4.8s-3.5,1.2-3.5,4.1v3.4h-6v-3.2c0-6.7,3.3-10.4,9.8-10.4s9.9,3.8,9.9,10.6 v1.1c0,4.5-1.5,7.3-4.7,8.6c3.3,1.5,4.7,4.6,4.7,8.8v3.3c0,6.7-3.4,10.6-9.9,10.6s-9.9-3.8-9.9-10.6v-4.7h6.3v5.1 c0,3,1.3,4.1,3.4,4.1s3.4-1.1,3.4-4.8v-3.3c0-3.9-1.3-5.3-4.3-5.3h-1.6v-6h2c2.4,0,3.9-1.1,3.9-4.5L137.4,10.8L137.4,10.8z"></path> <path class="st1" d="M146.9,10.6c0-6.7,3.5-10.6,10-10.6s10,3.8,10,10.6v21.9c0,6.7-3.5,10.6-10,10.6s-10-3.8-10-10.6V10.6z M153.4,32.8c0,3,1.3,4.1,3.4,4.1s3.4-1.2,3.4-4.1V10.2c0-3-1.3-4.1-3.4-4.1s-3.4,1.2-3.4,4.1V32.8z"></path> <path class="st1" d="M168.3,36.6c3,0,3.9-0.4,4-4.3l1.1-31.7h18.7v42h-6.7V6.5h-5.7L179,31.9c-0.2,7.6-3,10.7-9.7,10.7h-1.1 L168.3,36.6L168.3,36.6L168.3,36.6z"></path> <path class="st1" d="M195.6,10.6c0-6.7,3.5-10.6,10-10.6s10,3.8,10,10.6v21.9c0,6.7-3.5,10.6-10,10.6s-10-3.8-10-10.6V10.6z M202.1,32.8c0,3,1.3,4.1,3.4,4.1s3.4-1.2,3.4-4.1V10.2c0-3-1.3-4.1-3.4-4.1s-3.4,1.2-3.4,4.1V32.8z"></path> <path class="st1" d="M216.9,0.5h20.4v6h-6.9v36h-6.6v-36h-6.9V0.5z"></path> <path class="st1" d="M238.5,10.6c0-6.7,3.5-10.6,10-10.6s10,3.8,10,10.6v21.9c0,6.7-3.5,10.6-10,10.6s-10-3.8-10-10.6V10.6z M245.1,32.8c0,3,1.3,4.1,3.4,4.1s3.4-1.2,3.4-4.1V10.2c0-3-1.3-4.1-3.4-4.1c-2.1,0-3.4,1.2-3.4,4.1V32.8L245.1,32.8z"></path> <path id="WG_x5F_WoT_x5F_Logo_x5F_OneLevel_x5F_Simplified_x5F_Monochrome_x5F_1c_x5F_Eng_4_" class="st0" d="M140.6,66h-8.3 l-0.1,33h8c5.5-0.1,7.9-5,7.7-8.4V74.5C148.1,69.6,144.5,66,140.6,66L140.6,66z M12.7,62.3l-7.4,7.5h10.3V100l3.6,3.6l3.6-3.6V69.8 h10.4l-7.3-7.5L12.7,62.3L12.7,62.3z M12.2,72.6h-7v17l5.3,5.4l5-4.9l-3.3-3.3V72.6L12.2,72.6z M37.2,91.2V68.3L27.8,59H10.9 l-9.7,9.6v22.7l18,17.8L37.2,91.2L37.2,91.2z M3.2,90.3v-21l8.6-8.5h15l8.4,8.3v21.3l-16,15.9L3.2,90.3L3.2,90.3z M26.2,86.8L23,90 l0,0l4.9,4.9l5.3-5.4v-17h-7V86.8L26.2,86.8z M142.1,90.8c0,1-0.7,1.7-1.6,1.7h-2.2v-20h2.2c0.9,0,1.6,0.8,1.6,1.7V90.8L142.1,90.8 z M121.9,66h-6.2v33h14.2v-6.5h-8L121.9,66L121.9,66z M85.8,66L85.8,66c-3.4,0-5.1,1.8-6.4,3.3c-1.2,1.4-1.6,3.6-1.6,5.2l0.1,16.3 c0,2.9,1.1,4.9,2.4,6c1.9,1.7,3.1,2.1,5.5,2.2c0.1,0,0.2,0,0.3,0c2.2,0,3.7-0.7,5.3-2.2c0.7-0.6,2.4-2.9,2.4-5.5l-0.1-16.8 C93.7,69.7,90.2,66,85.8,66L85.8,66L85.8,66z M87.6,90.9c0,1-0.8,1.8-1.9,1.8c-1,0-1.9-0.8-1.9-1.8V73.8c0-1,0.8-1.8,1.9-1.8 c1,0,1.9,0.8,1.9,1.8V90.9L87.6,90.9z M109.5,84.8c0.9-1,2.7-3.2,2.7-5.2v-2.2v-3.7c-0.7-5-3.4-7.5-8.3-7.7h-7.8v33h5.8V87.1h1.6 l3.3,11.9h6.6l-0.4-1.4L109.5,84.8L109.5,84.8z M106.1,78.8c0,1-0.9,1.8-2,1.8h-2.2v-8.1h2.7c0.7,0,1.4,0.8,1.4,1.5L106.1,78.8 L106.1,78.8z M160.9,82c0.2-3.1-2.9-5.3-5.3-5.3l0,0c-3.3,0-5.2,2.3-5.3,5.3l-0.1,10.9c-0.2,3.1,2,6,5.1,6l0,0 c3.1,0,5.8-2.7,5.6-5.5V82L160.9,82z M156.4,93.2c0,0.6-0.5,1-1,1c-0.6,0-1-0.5-1-1V82c0-0.6,0.5-1,1-1c0.6,0,1,0.5,1,1V93.2 L156.4,93.2z M242.5,66H235l-4.4,9.3V66h-6.2l-0.2,33h6.2V85.2l5.3,13.8h6.9l-7.7-19.4L242.5,66L242.5,66z M163.1,99h4.5v-9.2h4.1 v-4h-4.2v-4.3h5.7V77h-10.1V99L163.1,99z M215.9,81.2L211.1,66h-6.6v33h6.5l-0.1-15.8l5,15.8h6.3V66H216L215.9,81.2L215.9,81.2z M186.5,72.3V66h-15.9v6.3h4.9v0.1V99h6.4l-0.1-26.7H186.5L186.5,72.3z M189.8,66l-0.1,0.5L184.1,99h6.5l1.3-7.7h3.3l1.1,7.7h6.5 l-5.5-33H189.8L189.8,66z M192.4,85.7l1.2-6.7l1,6.7H192.4L192.4,85.7z M254.7,82.1c-0.9-0.9-1.6-1.5-2.2-2 c-0.5-0.5-1.1-0.9-1.6-1.4c-0.8-0.7-2.3-2.7-2.3-4c0-0.8-0.2-1.4,0.5-2.4c0.3-0.4,0.8-0.6,1.2-0.6c0.1,0,0.2,0,0.3,0 c0.7,0.1,1.3,0.8,1.5,1.8l0.3,1.8l6-0.8c0-0.5,0-2.1-0.4-3.1c-1-2.8-3.2-4.7-6-5.3c-0.6-0.1-1.2-0.2-1.8-0.2 c-1.1,0-2.2,0.2-3.4,0.6c-2.1,0.8-4.8,3.7-4.7,7.5c0.1,1.9,0,3.5,1.3,5.6c1.7,2.8,4.4,4.9,7.1,7.5c1.2,1.1,2.2,3.1,1.4,4.8 c-0.3,0.7-1,1.2-1.7,1.2c-0.4,0-0.9-0.2-1.3-0.5c-1.2-1.1-1.1-2.9-1.3-3.9l-6.1,0.1c0,4.1,1.7,7.4,3.8,9.1c2.1,1.6,6.1,1.7,8.5,0.8 c1.6-0.6,4.4-3.7,4.9-7.2C259.2,87.5,256.7,84,254.7,82.1L254.7,82.1z M68.9,80.1L67.2,66h-6.4l-1.5,14.1L57.7,66h-6.6l5.4,33h5.9 l1.8-11.8l2,11.8h5.9L77,66h-6.5L68.9,80.1L68.9,80.1z"></path> <g> <g> <g> <defs> <rect id="SVGID_1_" x="0.2" y="145" width="258.6" height="68.2"></rect> </defs> <clipPath id="SVGID_2_"> <use xlink:href="#SVGID_1_" style="overflow:visible;"></use> </clipPath> <path class="st2" d="M139.8,189.6L139.8,189.6c1.4,1.4,3.1,2.1,5.6,2.1c5.3,0,10.9-4.6,10.9-13.2c0-7.5-5-11.3-9.6-11.3 c-4.3,0-6,2.4-6.8,3.8v-1.9c0-0.5-0.3-1.4-1.4-1.4c-2.4,0-5.6,0-5.6,0v31.5c0,0.9,0.7,1.4,1.4,1.4h5.6v-10.9 M139.8,176.8 c0.3-1.2,1.9-3.8,5-3.8c1.9,0,4.6,0.7,4.6,5.6c0,5.5-3.2,7.5-5.8,7.5c-2.1,0-3.2-0.9-3.6-1.2v-8.2H139.8z"></path> </g> </g> <g> <g> <defs> <rect id="SVGID_3_" x="0.2" y="145" width="258.6" height="68.2"></rect> </defs> <clipPath id="SVGID_4_"> <use xlink:href="#SVGID_3_" style="overflow:visible;"></use> </clipPath> <path class="st3" d="M170.9,172.9L170.9,172.9c-3.2,0-5.1,2.4-5.1,6.7c0,4.1,1.7,6.7,5.1,6.7s5.1-2.4,5.1-6.7 C176.2,175.4,174.5,172.9,170.9,172.9 M183.3,179.4c0,7.2-4.6,12.3-12.1,12.3c-7.2,0-12.1-5.1-12.1-12.3s4.6-12.3,12.1-12.3 C178.5,167.2,183.3,172.2,183.3,179.4z"></path> </g> </g> <g> <g> <defs> <rect id="SVGID_5_" x="0.2" y="145" width="258.6" height="68.2"></rect> </defs> <clipPath id="SVGID_6_"> <use xlink:href="#SVGID_5_" style="overflow:visible;"></use> </clipPath> <g class="st4"> <g> <g> <defs> <rect id="SVGID_7_" x="0.2" y="145.2" width="258.1" height="68.2"></rect> </defs> <defs> <rect id="SVGID_8_" x="0.2" y="145.2" width="258.1" height="68.2"></rect> </defs> <defs> <rect id="SVGID_9_" x="0.2" y="145.2" width="258.1" height="68.2"></rect> </defs> <defs> <rect id="SVGID_10_" x="0.2" y="145.2" width="258.1" height="68.2"></rect> </defs> <defs> <rect id="SVGID_11_" x="0.2" y="145.2" width="258.1" height="68.2"></rect> </defs> <clipPath id="SVGID_12_"> <use xlink:href="#SVGID_7_" style="overflow:visible;"></use> </clipPath> <clipPath id="SVGID_13_" class="st5"> <use xlink:href="#SVGID_8_" style="overflow:visible;"></use> </clipPath> <clipPath id="SVGID_14_" class="st6"> <use xlink:href="#SVGID_9_" style="overflow:visible;"></use> </clipPath> <clipPath id="SVGID_15_" class="st7"> <use xlink:href="#SVGID_10_" style="overflow:visible;"></use> </clipPath> <clipPath id="SVGID_16_" class="st8"> <use xlink:href="#SVGID_11_" style="overflow:visible;"></use> </clipPath> <path class="st9" d="M198.1,172.9L198.1,172.9c-3.2,0-5.1,2.4-5.1,6.7c0,4.1,1.7,6.7,5.1,6.7c3.2,0,5.1-2.4,5.1-6.7 S201.4,172.9,198.1,172.9 M210.1,179.4c0,7.2-4.6,12.3-12.1,12.3c-7.2,0-12.1-5.1-12.1-12.3s4.6-12.3,12.1-12.3 C205.5,167,210.1,172.2,210.1,179.4z"></path> <path class="st9" d="M68.4,179.2c0,18.8-15.4,34.2-34.2,34.2S0,198,0,179.2S15.4,145,34.2,145 C53.2,145.2,68.4,160.2,68.4,179.2"></path> </g> <g> <g> <defs> <rect id="SVGID_17_" x="0.2" y="145" width="258.6" height="68.2"></rect> </defs> <clipPath id="SVGID_18_"> <use xlink:href="#SVGID_17_" style="overflow:visible;"></use> </clipPath> <path class="st10" d="M42.2,186c-8.4,0-11.8-6.5-10.9-7.9c0.5-0.9,3.9,0.7,8.5,0.7c9.4,0,8.7-11.3,0.2-11.3 c-8.9,0-13.7,6.5-13.7,13.2c0,9.7,9.4,15.9,20.3,13c0.2,0,1-0.2,1.4,0.5c0.3,0.7,0,1.4-0.5,1.7c-5.3,4.3-12,5.6-17.3,5.6 c-26.2,0-28.2-45,7-45C62.1,156.6,65.7,186,42.2,186"></path> </g> <g> <g> <defs> <rect id="SVGID_19_" x="0.2" y="145" width="258.6" height="68.2"></rect> </defs> <clipPath id="SVGID_20_"> <use xlink:href="#SVGID_19_" style="overflow:visible;"></use> </clipPath> <path class="st11" d="M93.3,191.7L93.3,191.7c8.4,0,11.6-6.7,8.2-6.8c-0.9,0-1.5,1.4-6.3,1.4c-5,0-6.8-2.4-7.2-4.4h13.2 c1.7,0,2.6-1.5,2.9-2.4c1-4.1-1.2-12.1-10.8-12.1c-9.1,0-12.5,7.2-12.5,12.5C80.9,185,84.5,191.7,93.3,191.7 M93.5,172.7 c5,0,4.8,4.6,4.1,4.6H88C87.9,175.9,89.8,172.7,93.5,172.7z"></path> </g> <g> <g> <defs> <rect id="SVGID_21_" x="0.2" y="145" width="258.6" height="68.2"></rect> </defs> <clipPath id="SVGID_22_"> <use xlink:href="#SVGID_21_" style="overflow:visible;"></use> </clipPath> <path class="st12" d="M108,183.6v-15.9h11.5c4.6,0,8.4,2.4,8.4,6.5c0,2.7-1.5,3.9-2.7,4.4c1.2,0.3,3.8,1.7,3.8,5.3 c0,4.4-3.8,6.8-8.9,6.8h-1l0,0h-4.1C111.3,191.2,108,189.6,108,183.6 M122.4,184.1L122.4,184.1c0-1.4-0.9-2.2-2.4-2.2 h-4.8v2.2c0,1,0.7,2.2,2.1,2.2h2.9C121.2,186.2,122.4,185.3,122.4,184.1z M121.5,175.1c0-0.7-0.5-2.2-2.4-2.1h-3.9v4.4 h3.9C120.5,177.3,121.5,176.5,121.5,175.1z"></path> </g> <g> <g> <defs> <rect id="SVGID_23_" x="0.2" y="145" width="258.6" height="68.2"></rect> </defs> <clipPath id="SVGID_24_"> <use xlink:href="#SVGID_23_" style="overflow:visible;"></use> </clipPath> <path class="st13" d="M244.3,190V173h-5.8c-0.7,0-1.4-0.5-1.4-1.2v-3.9h20c0.5,0,1.4,0.3,1.4,1.4v3.8h-7.2v18.3h-5.8 C244.6,191.2,244.3,190.3,244.3,190"></path> </g> <g> <g> <path class="st14" d="M213.5,189.8v-22h13.8c3.8,0,7,1.4,7,7.3V191h-5.6c-0.5,0-1.4-0.5-1.4-1.2v-14.7 c0-1-0.9-2.2-2.2-2.2h-4.8v18.3h-5.6C213.8,191.2,213.5,190.3,213.5,189.8"></path> </g> </g> </g> </g> </g> </g> </g> </g> </g> </g> </g> <g> <path class="st1" d="M5.8,124.6c0-1.7-0.6-2.1-1.5-2.1c-0.9,0-1.5,0.5-1.5,1.8v1.5H0.1v-1.4c0-3,1.4-4.6,4.3-4.6s4.3,1.7,4.3,4.7 v0.5c0,2-0.6,3.2-2,3.8c1.5,0.6,2,2,2,3.9v1.5c0,3-1.5,4.7-4.3,4.7S0,137,0,134.1v-2h2.7v2.2c0,1.3,0.6,1.8,1.5,1.8 c0.9,0,1.5-0.4,1.5-2.1v-1.5c0-1.7-0.6-2.4-1.9-2.4H3.2v-2.6h0.9c1.1,0,1.7-0.5,1.7-2V124.6z"></path> <path class="st1" d="M20.1,138.5h-2.9l-0.5-3.4h-3.6l-0.5,3.4H9.9l3-18.5h4.3L20.1,138.5z M13.4,132.6h2.8l-1.4-9.4L13.4,132.6z"></path> <path class="st1" d="M28.4,138.5h-2.9V120h9.2v18.5h-3v-15.9h-3.3V138.5z"></path> <path class="st1" d="M36.5,124.5c0-3,1.6-4.7,4.4-4.7s4.4,1.7,4.4,4.7v9.6c0,3-1.6,4.7-4.4,4.7s-4.4-1.7-4.4-4.7V124.5z M39.5,134.3c0,1.3,0.6,1.8,1.5,1.8s1.5-0.5,1.5-1.8v-10c0-1.3-0.6-1.8-1.5-1.8s-1.5,0.5-1.5,1.8V134.3z"></path> <path class="st1" d="M51.1,131.1l-0.9,1.7v5.7h-2.9V120h2.9v8.1L54,120h2.9l-4,8.2l4,10.3h-3L51.1,131.1z"></path> <path class="st1" d="M64.6,133.8c-0.7,3.3-1.8,5-5.9,4.7v-2.6c1.5,0.1,2.3-0.2,2.6-1.5l0-0.2l-4-14.3h2.9l1.6,6.3l0.9,4.3l0.7-4.3 l1.3-6.3h3L64.6,133.8z"></path> <path class="st1" d="M71.9,138.5H69V120h9.2v18.5h-3v-15.9h-3.3V138.5z"></path> <path class="st1" d="M84.1,131.1l-0.9,1.7v5.7h-2.9V120h2.9v8.1L87,120h2.9l-4,8.2l4,10.3h-3L84.1,131.1z"></path> <path class="st1" d="M97.6,133.8c-0.7,3.3-1.8,5-5.9,4.7v-2.6c1.5,0.1,2.3-0.2,2.6-1.5l0-0.2l-4-14.3h2.9l1.6,6.3l0.9,4.3l0.7-4.3 l1.3-6.3h3L97.6,133.8z"></path> <path class="st1" d="M114.8,124.3v0.7c0,1.9-0.6,3.1-1.9,3.7c1.6,0.6,2.2,2,2.2,4v1.5c0,2.9-1.5,4.4-4.4,4.4h-4.6V120h4.4 C113.5,120,114.8,121.4,114.8,124.3z M109,122.7v4.9h1.1c1.1,0,1.7-0.5,1.7-2v-1c0-1.3-0.4-1.9-1.5-1.9H109z M109,130.2v5.7h1.7 c1,0,1.5-0.4,1.5-1.8v-1.6c0-1.7-0.6-2.2-1.9-2.2H109z"></path> <path class="st1" d="M120.9,138.5V120h7.7v2.6h-4.8v15.9H120.9z"></path> <path class="st1" d="M133.5,138.5h-3V120h2.6v11.7l1.1-4.1l2.4-7.6h3.2v18.5h-2.6v-13l-1.2,4.5L133.5,138.5z"></path> <path class="st1" d="M144.7,138.5h-2.9V120h9.2v18.5h-3v-15.9h-3.3V138.5z"></path> <path class="st1" d="M156,127.8h4v2.6h-4v5.4h5v2.6h-7.9V120h7.9v2.6h-5V127.8z"></path> <path class="st1" d="M171.4,124.6v2.4c0,3-1.4,4.6-4.3,4.6h-1.4v7h-2.9V120h4.3C170,120,171.4,121.6,171.4,124.6z M165.7,122.7 v6.3h1.4c0.9,0,1.4-0.4,1.4-1.7v-2.8c0-1.3-0.5-1.7-1.4-1.7H165.7z"></path> <path class="st1" d="M178.9,133.1l2-13.1h4v18.5h-2.7v-13.3l-2,13.3h-2.7l-2.2-13.1v13.1h-2.5V120h4L178.9,133.1z"></path> <path class="st1" d="M196.5,138.5h-2.9l-0.5-3.4h-3.6l-0.5,3.4h-2.7l3-18.5h4.3L196.5,138.5z M189.8,132.6h2.8l-1.4-9.4 L189.8,132.6z"></path> <path class="st1" d="M206.4,124.6v2.4c0,3-1.4,4.6-4.3,4.6h-1.4v7h-2.9V120h4.3C205,120,206.4,121.6,206.4,124.6z M200.7,122.7 v6.3h1.4c0.9,0,1.4-0.4,1.4-1.7v-2.8c0-1.3-0.5-1.7-1.4-1.7H200.7z"></path> <path class="st1" d="M211.6,131.1l-0.9,1.7v5.7h-2.9V120h2.9v8.1l3.8-8.1h2.9l-4,8.2l4,10.3h-3L211.6,131.1z"></path> <path class="st1" d="M221.6,127.8h4v2.6h-4v5.4h5v2.6h-7.9V120h7.9v2.6h-5V127.8z"></path> <path class="st1" d="M227.6,120h9v2.6h-3v15.9h-2.9v-15.9h-3V120z"></path> <path class="st1" d="M247.2,138.5h-2.9l-0.5-3.4h-3.6l-0.5,3.4h-2.7l3-18.5h4.3L247.2,138.5z M240.6,132.6h2.8l-1.4-9.4 L240.6,132.6z"></path> <path class="st1" d="M258.3,120l-3,9l3.3,9.5h-3.1l-2.4-7.3l-2.4,7.3h-2.7l3.3-9.5l-3-9h3l2.2,6.8l2.2-6.8H258.3z"></path> </g> </g> <g id="Layer_2"> </g> </svg> 