<?xml version="1.0" encoding="UTF-8"?> <!-- Generator: Adobe Illustrator 21.0.2, SVG Export Plug-In . SVG Version: 6.00 Build 0) --> <svg xmlns="http://www.w3.org/2000/svg" xmlns:xlink="http://www.w3.org/1999/xlink" id="Layer_1" x="0px" y="0px" viewBox="0 0 87.7 86.5" style="enable-background:new 0 0 87.7 86.5;" xml:space="preserve"> <style type="text/css"> .st0{fill:#FFFFFF;} .st1{fill:#E5A33E;} </style> <g> <g> <path class="st0" d="M144.2-77c-23.8,0-39.8-19.4-35.6-43.2c4.2-23.8,27-43.2,50.8-43.2s39.8,19.4,35.6,43.2 C190.9-96.4,168.1-77,144.2-77z M159.3-162.5c-23.3,0-45.6,19-49.6,42.2C105.6-97.1,121.2-78,144.4-78s45.6-19,49.6-42.2 C198.2-143.4,182.6-162.5,159.3-162.5z"></path> </g> <g> <g> <path class="st0" d="M167.6-140.2h-24.3c-4.1,0-8,3.3-8.7,7.4l-4.3,24.3c-0.7,4.1,2,7.4,6.1,7.4h24.3c4.1,0,8-3.3,8.7-7.4 l4.3-24.3C174.4-136.9,171.7-140.2,167.6-140.2z M166.8-108.6c-0.5,2.6-2.9,4.8-5.6,4.8h-24.3c-2.6,0-4.4-2.1-4-4.8l4.3-24.3 c0.5-2.6,2.9-4.8,5.6-4.8h24.3c2.6,0,4.4,2.1,4,4.8L166.8-108.6z"></path> </g> <g> <path class="st0" d="M153.7-130.5c-5.4,0-10.6,4.4-11.5,9.8c-1,5.4,2.7,9.8,8.1,9.8s10.6-4.4,11.5-9.8 C162.7-126.1,159.2-130.5,153.7-130.5z M150.7-113.5c-4,0-6.6-3.2-5.9-7.2s4.5-7.2,8.5-7.2s6.6,3.2,5.9,7.2 S154.7-113.5,150.7-113.5z"></path> </g> <g> <path class="st0" d="M165.9-134.1c1,0,1.7,0.8,1.5,1.8c-0.2,1-1.1,1.8-2.1,1.8s-1.7-0.8-1.5-1.8 C164-133.3,164.9-134.1,165.9-134.1z"></path> </g> </g> </g> <g> <g> <path class="st1" d="M-74.8,86.5c-23.8,0-39.8-19.4-35.6-43.2C-106.1,19.5-83.3,0-59.5,0s39.8,19.4,35.6,43.2 S-50.9,86.5-74.8,86.5z M-59.7,1c-23.2,0-45.6,19-49.6,42.2c-4.1,23.2,11.6,42.2,34.8,42.2s45.6-19,49.6-42.2S-36.4,1-59.7,1z"></path> </g> <g> <path class="st1" d="M-52.3,44.7c0,0,8-9,9.1-12c0.4-1.1,0-1.6-1.1-1.6c0,0-3.7,0-5.5,0c-1.3,0-1.8,0.5-2.3,1.4 c0,0-4.1,6.4-8.4,10.4c-1.4,1.3-2.1,1.7-2.7,1.7c-0.5,0-0.7-0.4-0.5-1.6l1.8-10.4c0.2-1.4,0.1-1.9-1.1-1.9h-8.9 c-0.7,0-1.2,0.4-1.3,0.9c-0.2,1.4,1.8,1.7,1.2,5.3l-1.3,7.6c-0.3,1.5-0.5,2.1-1.2,2.1c-1.9,0-5.2-6.6-6.5-14 c-0.2-1.5-0.8-1.9-2.2-1.9h-5.5c-0.8,0-1.5,0.5-1.6,1.4c-0.3,1.5,0.2,8.3,5.4,17.5c3.5,6.2,8.9,9.5,14.3,9.5 c3.3,0,4.2-0.5,4.4-1.9l0.8-4.7c0.2-1.2,0.8-1.7,1.4-1.7c0.8,0,2.1,0.2,4.6,3.3c3.1,3.6,3.1,5,5.1,5h6.2c0.6,0,1.3-0.3,1.4-1.4 c0.2-1.4-1.1-3.9-3.4-6.8c-0.8-1.5-2.4-3.2-2.9-3.9C-53.4,46.1-53,45.6-52.3,44.7L-52.3,44.7z"></path> </g> </g> <g> <path class="st1" d="M36.3,37.2H40l0.6-3.6c0.3-1.6,0.7-4.1,2.2-5.6c1.6-1.8,4-2.9,6.3-2.7c2.2-0.1,4.5,0.1,6.6,0.7l-2,5.4 c-0.9-0.3-1.9-0.4-2.9-0.5c-1.5,0-2.8,0.5-3.1,2L47,37.1h5.9l-1.4,5.4h-5.5l-3.3,18.7h-7l3.3-18.6h-3.7L36.3,37.2z"></path> </g> </svg> 