<?xml version="1.0" encoding="UTF-8"?> <!-- Generator: Adobe Illustrator 21.0.2, SVG Export Plug-In . SVG Version: 6.00 Build 0) --> <svg xmlns="http://www.w3.org/2000/svg" xmlns:xlink="http://www.w3.org/1999/xlink" id="Layer_1" x="0px" y="0px" viewBox="0 0 226.7 34.4" style="enable-background:new 0 0 226.7 34.4;" xml:space="preserve"> <style type="text/css"> .st0{fill:#FFFFFF;} </style> <g> <g> <path class="st0" d="M89.9-75.6h3.7v-3.6c0-1.6,0-4.1,1.2-5.6c1.3-1.8,3.5-2.9,5.8-2.7c2.2-0.1,4.5,0.1,6.7,0.7l-1,5.4 c-1-0.3-2-0.4-3-0.4c-1.5,0-2.7,0.5-2.7,2v4.2h5.9l-0.4,5.4h-5.5v18.7h-7v-18.7h-3.7V-75.6z"></path> </g> <g> <path class="st0" d="M98.5-26.3c-23.8,0-43.2-19.4-43.2-43.2s19.4-43.3,43.2-43.3s43.2,19.4,43.2,43.3 C141.8-45.7,122.4-26.3,98.5-26.3z M98.5-111.8c-23.2,0-42.2,19-42.2,42.3s19,42.2,42.2,42.2s42.2-19,42.2-42.2 S121.8-111.8,98.5-111.8z"></path> </g> </g> <g> <g> <path class="st0" d="M206.5-33.4c-23.8,0-43.2-19.4-43.2-43.2s19.4-43.2,43.2-43.2s43.2,19.4,43.2,43.2S230.4-33.4,206.5-33.4z M206.5-118.9c-23.3,0-42.2,19-42.2,42.2s19,42.3,42.2,42.3s42.2-19,42.2-42.2S229.8-118.9,206.5-118.9z"></path> </g> <g> <g> <path class="st0" d="M218.7-96.6h-24.3c-4.1,0-7.4,3.3-7.4,7.4v24.3c0,4.1,3.3,7.4,7.4,7.4h24.3c4.1,0,7.4-3.3,7.4-7.4v-24.3 C226.1-93.3,222.8-96.6,218.7-96.6z M223.5-65c0,2.6-2.1,4.8-4.8,4.8h-24.3c-2.6,0-4.8-2.1-4.8-4.8v-24.3c0-2.6,2.1-4.8,4.8-4.8 h24.3c2.6,0,4.8,2.1,4.8,4.8V-65z"></path> </g> <g> <path class="st0" d="M206.5-86.9c-5.4,0-9.8,4.4-9.8,9.8s4.4,9.8,9.8,9.8s9.8-4.4,9.8-9.8S212-86.9,206.5-86.9z M206.5-69.9 c-4,0-7.2-3.2-7.2-7.2s3.2-7.2,7.2-7.2s7.2,3.2,7.2,7.2S210.5-69.9,206.5-69.9z"></path> </g> <g> <circle class="st0" cx="218.1" cy="-88.7" r="1.8"></circle> </g> </g> </g> <g> <path class="st0" d="M4.8,30.3H0L5.3,0h15L15,30.3h-4.9l4.6-26H9.4L4.8,30.3z"></path> <path class="st0" d="M36.7,7.5L36,11.4c-0.9,4.9-3.7,7.5-8.4,7.5h-2.3l-2,11.4h-4.8L23.9,0h7C35.6,0,37.5,2.6,36.7,7.5z M27.9,4.3 L26,14.6h2.3c1.5,0,2.5-0.7,2.8-2.9l0.8-4.5c0.4-2.2-0.3-2.9-1.8-2.9H27.9z"></path> <path class="st0" d="M50.3,30.3h-4.8l0.1-5.5h-5.9L38,30.3h-4.4L43.8,0h7L50.3,30.3z M41.1,20.7h4.6l0.4-15.3L41.1,20.7z"></path> <path class="st0" d="M70.8,7l-0.2,1.1c-0.6,3.1-1.9,5.1-4.2,6.1c2.4,1,3,3.3,2.4,6.5l-0.4,2.5c-0.8,4.7-3.7,7.2-8.5,7.2h-7.5 L57.8,0H65C70,0,71.7,2.3,70.8,7z M59.6,16.7L58,26h2.7c1.6,0,2.6-0.7,3-3l0.5-2.6c0.5-2.8-0.3-3.7-2.4-3.7H59.6z M61.8,4.3l-1.4,8 h1.9c1.8,0,3-0.8,3.4-3.2L66,7.5c0.4-2.2-0.2-3.1-1.9-3.1H61.8z"></path> <path class="st0" d="M75,30.3h-4.9L75.4,0h4.2l-3.4,19.2l2.9-6.7L85.3,0h5.2l-5.3,30.3h-4.3L84.7,9l-3.3,7.5L75,30.3z"></path> <path class="st0" d="M88,26c2.2,0,2.9-0.3,3.5-3.1L96.3,0h13.5l-5.3,30.3h-4.9l4.6-26H100l-3.8,18.3c-1.2,5.5-3.5,7.7-8.3,7.7h-0.7 L88,26z"></path> <path class="st0" d="M123.5,30.3h-4.8l0.1-5.5H113l-1.8,5.5h-4.4L117,0h7L123.5,30.3z M114.3,20.7h4.6l0.4-15.3L114.3,20.7z"></path> <path class="st0" d="M147.8,30.3H143l0.1-5.5h-5.9l-1.8,5.5h-4.4L141.4,0h7L147.8,30.3z M138.7,20.7h4.6l0.4-15.3L138.7,20.7z"></path> <path class="st0" d="M158.4,18.2l-2,2.8l-1.6,9.3h-4.8L155.4,0h4.8l-2.3,13.2L166.4,0h4.8l-9,13.5l3.7,16.8h-4.9L158.4,18.2z"></path> <path class="st0" d="M173.3,0h4.8l-4.6,26h5.4l4.6-26h4.9l-4.6,26.1h2.1l-1.5,8.3h-4.6l0.7-4.1H168L173.3,0z"></path> <path class="st0" d="M192.6,30.3h-4.9L193.1,0h4.2l-3.4,19.2l2.9-6.7L202.9,0h5.2l-5.3,30.3h-4.3L202.3,9l-3.3,7.5L192.6,30.3z"></path> <path class="st0" d="M211.1,30.3h-4.9L211.6,0h4.2l-3.4,19.2l2.9-6.7L221.4,0h5.2l-5.3,30.3H217L220.8,9l-3.3,7.5L211.1,30.3z"></path> </g> <text transform="matrix(0.9848 0 -0.1736 0.9848 274.9778 91.6176)" class="st0" style="font-family:'BebasNeueBold'; font-size:12.1851px;">Обменяй код</text> </svg> 