<?xml version="1.0" encoding="UTF-8"?> <!-- Generator: Adobe Illustrator 21.0.2, SVG Export Plug-In . SVG Version: 6.00 Build 0) --> <svg xmlns="http://www.w3.org/2000/svg" xmlns:xlink="http://www.w3.org/1999/xlink" id="Layer_1" x="0px" y="0px" viewBox="0 0 77.4 11.4" style="enable-background:new 0 0 77.4 11.4;" xml:space="preserve"> <style type="text/css"> .st0{fill:#FFFFFF;} </style> <g> <path class="st0" d="M3.4,3.9c0.1-0.8-0.1-1-0.5-1S2.2,3.2,2.1,3.8L2,4.5H0.7l0.1-0.6c0.2-1.3,1-2.1,2.3-2.1c1.3,0,1.8,0.8,1.6,2.1 l0,0.2C4.6,5,4.2,5.6,3.5,5.8c0.6,0.3,0.8,0.9,0.6,1.8L4,8.3c-0.2,1.3-1,2.1-2.3,2.1c-1.3,0-1.8-0.8-1.6-2.1l0.2-0.9h1.2l-0.2,1 C1.2,8.9,1.4,9.2,1.8,9.2S2.5,9,2.7,8.2l0.1-0.7c0.1-0.8-0.1-1.1-0.7-1.1H1.8L2,5.3h0.4c0.5,0,0.8-0.2,0.9-0.9L3.4,3.9z"></path> <path class="st0" d="M8.8,10.3H7.5l0-1.5H5.9l-0.5,1.5H4.2L7,1.9h1.9L8.8,10.3z M6.3,7.6h1.3l0.1-4.2L6.3,7.6z"></path> <path class="st0" d="M13,11.4l0.2-1.1h-2.8l-0.2,1.1H8.9l0.4-2.3h0.5c0.3-0.3,0.4-0.6,0.5-1.1l1.4-6.1h3.7l-1.3,7.2h0.6l-0.4,2.3 H13z M11.7,8c-0.1,0.6-0.3,0.9-0.6,1.1h1.7l1.1-6h-1.1L11.7,8z"></path> <path class="st0" d="M19.5,10.3h-1.3l0-1.5h-1.6l-0.5,1.5h-1.2l2.8-8.4h1.9L19.5,10.3z M17,7.6h1.3l0.1-4.2L17,7.6z"></path> <path class="st0" d="M21.5,10.3h-1.4l1.5-8.4h1.2l-0.9,5.3l0.8-1.8l1.7-3.5h1.5l-1.5,8.4h-1.2l1-5.9l-0.9,2.1L21.5,10.3z M24.7,0 c-0.1,0.4-0.3,0.6-0.7,0.6c-0.3,0-0.5-0.1-0.5-0.6h-0.8c-0.1,0.8,0.2,1.3,1.1,1.3c0.9,0,1.5-0.5,1.6-1.3H24.7z"></path> <path class="st0" d="M31.5,7.1l-0.2,1.1c-0.2,1.3-1,2.1-2.3,2.1c-1.3,0-1.8-0.8-1.6-2.1l0.8-4.4c0.2-1.3,1-2.1,2.3-2.1 c1.3,0,1.8,0.8,1.6,2.1L32,4.7h-1.2l0.2-0.9C31,3.2,30.8,3,30.3,3s-0.7,0.2-0.8,0.8l-0.8,4.5c-0.1,0.6,0.1,0.8,0.5,0.8 s0.7-0.2,0.8-0.8l0.2-1.2H31.5z"></path> <path class="st0" d="M36.9,3.8l-0.1,0.3c-0.2,0.9-0.5,1.4-1.2,1.7c0.7,0.3,0.8,0.9,0.7,1.8l-0.1,0.7c-0.2,1.3-1,2-2.4,2h-2.1 l1.5-8.4h2C36.6,1.9,37.1,2.5,36.9,3.8z M33.8,6.5l-0.5,2.6h0.8c0.4,0,0.7-0.2,0.8-0.8L35,7.5c0.1-0.8-0.1-1-0.7-1H33.8z M34.4,3.1 L34,5.3h0.5c0.5,0,0.8-0.2,0.9-0.9l0.1-0.5c0.1-0.6-0.1-0.9-0.5-0.9H34.4z"></path> <path class="st0" d="M37.7,3.9c0.2-1.3,1.1-2.1,2.4-2.1c1.3,0,1.9,0.8,1.6,2.1l-0.8,4.4c-0.2,1.3-1.1,2.1-2.4,2.1 c-1.3,0-1.9-0.8-1.6-2.1L37.7,3.9z M38.2,8.3c-0.1,0.6,0.1,0.8,0.5,0.8s0.7-0.2,0.8-0.8l0.8-4.5C40.5,3.2,40.3,3,39.8,3 S39.1,3.2,39,3.8L38.2,8.3z"></path> <path class="st0" d="M42.8,10.3h-1.4l1.5-8.4h1.2l-0.9,5.3l0.8-1.8l1.7-3.5h1.5l-1.5,8.4h-1.2l1-5.9l-0.9,2.1L42.8,10.3z M45.9,0 c-0.1,0.4-0.3,0.6-0.7,0.6c-0.3,0-0.5-0.1-0.5-0.6H44c-0.1,0.8,0.2,1.3,1.1,1.3c0.9,0,1.5-0.5,1.6-1.3H45.9z"></path> <path class="st0" d="M53.5,3.8l-0.1,0.3c-0.2,0.9-0.5,1.4-1.2,1.7C53,6.1,53.1,6.7,53,7.6l-0.1,0.7c-0.2,1.3-1,2-2.4,2h-2.1 l1.5-8.4h2C53.3,1.9,53.7,2.5,53.5,3.8z M50.4,6.5l-0.5,2.6h0.8c0.4,0,0.7-0.2,0.8-0.8l0.1-0.7c0.1-0.8-0.1-1-0.7-1H50.4z M51,3.1 l-0.4,2.2h0.5c0.5,0,0.8-0.2,0.9-0.9l0.1-0.5c0.1-0.6-0.1-0.9-0.5-0.9H51z"></path> <path class="st0" d="M54.3,3.9c0.2-1.3,1.1-2.1,2.4-2.1s1.9,0.8,1.6,2.1l-0.8,4.4c-0.2,1.3-1.1,2.1-2.4,2.1c-1.3,0-1.9-0.8-1.6-2.1 L54.3,3.9z M54.8,8.3c-0.1,0.6,0.1,0.8,0.5,0.8s0.7-0.2,0.8-0.8L57,3.8C57.1,3.2,56.9,3,56.5,3s-0.7,0.2-0.8,0.8L54.8,8.3z"></path> <path class="st0" d="M59.4,10.3H58l1.5-8.4h4.2l-1.5,8.4h-1.3l1.3-7.2h-1.5L59.4,10.3z"></path> <path class="st0" d="M68.2,4L68,5c-0.2,1.3-1,2.1-2.3,2.1H65l-0.6,3.2h-1.3l1.5-8.4h1.9C67.9,1.9,68.4,2.6,68.2,4z M65.8,3.1 l-0.5,2.8h0.6c0.4,0,0.7-0.2,0.8-0.8l0.2-1.3c0.1-0.6-0.1-0.8-0.5-0.8H65.8z"></path> <path class="st0" d="M68.7,3.9c0.2-1.3,1.1-2.1,2.4-2.1s1.9,0.8,1.6,2.1l-0.8,4.4c-0.2,1.3-1.1,2.1-2.4,2.1c-1.3,0-1.9-0.8-1.6-2.1 L68.7,3.9z M69.2,8.3c-0.1,0.6,0.1,0.8,0.5,0.8s0.7-0.2,0.8-0.8l0.8-4.5C71.5,3.2,71.3,3,70.9,3S70.1,3.2,70,3.8L69.2,8.3z"></path> <path class="st0" d="M76.8,7.1l-0.2,1.1c-0.2,1.3-1,2.1-2.3,2.1c-1.3,0-1.8-0.8-1.6-2.1l0.8-4.4c0.2-1.3,1-2.1,2.3-2.1 c1.3,0,1.8,0.8,1.6,2.1l-0.1,0.8H76l0.2-0.9C76.3,3.2,76,3,75.6,3s-0.7,0.2-0.8,0.8L74,8.3c-0.1,0.6,0.1,0.8,0.5,0.8 s0.7-0.2,0.8-0.8l0.2-1.2H76.8z"></path> </g> </svg> 