<?xml version="1.0" encoding="UTF-8"?> <!-- Generator: Adobe Illustrator 21.0.2, SVG Export Plug-In . SVG Version: 6.00 Build 0) --> <svg xmlns="http://www.w3.org/2000/svg" xmlns:xlink="http://www.w3.org/1999/xlink" id="Layer_1" x="0px" y="0px" viewBox="0 0 343 97.7" style="enable-background:new 0 0 343 97.7;" xml:space="preserve"> <style type="text/css"> .st0{clip-path:url(#SVGID_2_);fill:#ED1C24;} .st1{clip-path:url(#SVGID_2_);fill:#FFFFFF;} .st2{clip-path:url(#SVGID_2_);fill:#2E3192;} </style> <g> <defs> <rect id="SVGID_1_" y="0" width="343" height="97.7"></rect> </defs> <clipPath id="SVGID_2_"> <use xlink:href="#SVGID_1_" style="overflow:visible;"></use> </clipPath> <path class="st0" d="M59,0C38.3,0,29.9,14.1,26.8,22.7L0,97.6h283.9c20.8,0,29.3-14.2,32.2-22.7L343,0H59z"></path> <path class="st1" d="M59,8.9c-9.7,0-19.3,4.2-23.8,16.8l-22.6,63h271.3c9.8,0,19.3-4.2,23.8-16.8l22.6-63H59z"></path> <path class="st2" d="M223.1,54l8.9,0l4.1-11.1l-8.9,0l5.6-15.8l11.4,0l4.2-11h-27l-23.9,65.5h27l3.9-10.8H217L223.1,54z M58.3,44 c-4.1-4.1-5.2-5.8-3.5-10.2l1.7-4.6c0.7-1.8,1.2-2.4,2.5-2.4c1,0,1.6,0.6,0.9,2.5l-3.2,8.8l14.8,0l7.4-20.7c0,0-1.4-0.6-4-1.1 c-2.6-0.6-6.4-1.1-11.3-1.1c-15.1,0-18.7,4.1-23.4,17.4c-3.8,10.7-1.4,14.5,3.5,19.4c3.4,3.4,6.1,5.4,4,10.9l-2.7,6.9 c-0.6,1.6-1.2,2.4-2.3,2.4c-1.6,0-1.7-1-1-2.8l4.2-11l-14.7,0l-8,22c0,0,2.1,0.5,5,1c3,0.5,6.9,1,11,1c15.2,0,18.2-4.3,22.6-16.7 C65.6,54.5,64.3,50,58.3,44 M107.8,16.1L97.1,46.9l2.9-30.8H83.4L59.5,81.5h11.7l11-30.7l-2.9,30.7h16.5l23.6-65.5H107.8z M124.4,16.1l-23.8,65.5h16.2l23.8-65.5H124.4z M150,52.2l-6.3,17.2c-0.7,1.8-1.1,2.8-2.7,2.8c-1.5,0-1.3-1.2-0.8-2.6l14.7-40.4 c0.7-1.9,1.2-2.5,2.7-2.5c1.2,0,1.3,0.9,0.7,2.7l-5.4,14.8l14.6,0l9.7-26.7c0,0-1.3-0.6-3.7-1.1c-2.5-0.5-6.2-1-11.4-1 c-15,0-18.1,3.2-22.4,15l-13.7,37.8c-3,8.4-0.6,14.5,12.1,14.5c13.6,0,17.1-4.3,20.2-12.7l6.4-17.6L150,52.2z M219.5,16.1h-15.7 L189.7,36l7.7-19.9H182l-23.9,65.5h15.6l7.7-23.1l-0.4,23.1h15.2l-0.8-32.9L219.5,16.1z M264.1,31.1l-3.4,9.5c-0.9,2.4-2,3.6-4,3.6 l-1,0l6.2-16.8l0.5,0C264.2,27.3,265.1,28.2,264.1,31.1 M267.2,53.2c-0.4-0.9-1-1.9-1.7-2.7c0.2,0,0.5-0.2,0.9-0.3 c3.9-1.6,6.9-4.7,8.3-8.7l3.6-9.7c3.5-9.6-0.2-15.7-9.3-15.8h-17.5l-23.9,65.5h14.6l9.8-27.2l0.2,0c1.7,0,2.2,1.8,1,5.4l-7.4,21.9 h14.3l6.9-19.9C268.4,57.9,267.9,55.1,267.2,53.2 M297.5,38.1h14.8l7.5-20.7c0,0-1.4-0.6-4-1.1c-2.6-0.5-6.4-1.1-11.3-1.1 c-15.1,0-18.7,4.1-23.4,17.4c-3.8,10.7-1.4,14.5,3.5,19.4c3.4,3.4,6.1,5.4,4,10.9l-2.7,6.9c-0.6,1.6-1.2,2.4-2.3,2.4 c-1.6,0-1.7-1-1-2.8l4.2-10.9l-14.6,0l-8,22c0,0,2.1,0.5,5,1c2.9,0.5,6.9,1,11,1c15.2,0,18.2-4.3,22.6-16.7 c4-11.3,2.6-15.8-3.4-21.8c-4.1-4.1-5.2-5.8-3.5-10.2l1.7-4.6c0.7-1.8,1.2-2.4,2.5-2.4c1,0,1.5,0.6,0.9,2.5L297.5,38.1z"></path> <path class="st1" d="M199.1,80.4h1l23.1-63.2h-1L199.1,80.4z M41.2,32.9c-4,11.4-1.3,13.6,5.7,20.7c2.8,2.9,3.3,5.5,1.7,9.7 l-2.4,6.3c-0.8,2.1-1.6,3.5-3.2,3.7c0.2,0,0.4,0,0.6,0c2,0,2.8-1.4,3.7-3.7l2.4-6.3c1.6-4.2,1.1-6.7-1.7-9.6 c-7-7.2-9.7-9.4-5.7-20.7c4.5-12.8,7.7-16.5,21.7-16.7l-0.4,0C49,16.3,45.7,19.9,41.2,32.9 M60,25.6c-0.2,0-0.4,0-0.5,0 c1.9,0.2,2.2,1.9,1.5,3.7l-2.8,7.6l1,0l2.8-7.6C62.8,27.5,62.3,25.6,60,25.6 M31.9,59.6l-7.3,20l1,0.2l7.4-20.2L31.9,59.6z M108.6,17.2L96.7,51l-0.4,3.9l13.4-37.8H108.6z M61.1,80.4l1,0l23.1-63.2h-1L61.1,80.4z M80.6,80.4h1l3.2-37l-1.4,3.7L80.6,80.4z M102.1,80.4h1l23-63.2h-1L102.1,80.4z M140.7,30.7L127,68.4c-2.8,7.7-0.9,12.9,11,12.9h0.6c-11.5-0.1-13.3-5.4-10.5-13l13.7-37.7 c4.1-11.2,6.8-14.2,20.8-14.2l-0.5,0C147.5,16.5,144.8,19.4,140.7,30.7 M144.7,69.8c-0.7,1.8-1.3,3.3-3.3,3.5c0.2,0,0.3,0,0.5,0 c2.4,0,3.1-1.6,3.8-3.5l6-16.4l-1,0L144.7,69.8z M158.6,25.6c-0.2,0-0.4,0-0.6,0c1.8,0.2,2.1,1.9,1.4,3.7l-5,13.8l1,0l5-13.7 C161.2,27.3,160.8,25.6,158.6,25.6 M159.8,80.4h1l23-63.2h-1L159.8,80.4z M204.4,17.2l-16.3,22.7L187,43l18.5-25.8H204.4z M182.5,55.2l-0.3,25.2h1l0.4-28.3L182.5,55.2z M263.4,26.2l-1,0c2.6,0,4.1,1.6,2.8,5.2l-3.4,9.5c-1,2.7-2.5,4.3-5,4.3h1 c2.5,0,4.1-1.6,5-4.3l3.4-9.5C267.5,27.8,265.9,26.2,263.4,26.2 M253,53.2l-0.8,0c3.3,0.1,3.3,3.3,2,7.1l-6.9,20.1h1l6.8-20.1 C256.6,56.4,256.6,53.2,253,53.2 M252.2,17.2l-23,63.2h1l23-63.2H252.2z M288.8,53.7c-7-7.2-9.7-9.3-5.7-20.7 c4.5-12.8,7.7-16.6,21.7-16.6l-0.4,0c-14.5,0-17.8,3.6-22.3,16.7c-4,11.4-1.3,13.5,5.7,20.7c2.8,2.9,3.3,5.5,1.7,9.6l-2.4,6.3 c-0.8,2.1-1.5,3.5-3.2,3.7c0.2,0,0.4,0,0.5,0c2,0,2.8-1.4,3.7-3.7l2.4-6.3C292.1,59.1,291.6,56.6,288.8,53.7 M300.9,25.6 c-0.2,0-0.4,0-0.5,0c1.9,0.2,2.2,1.9,1.6,3.7l-2.8,7.6h1l2.8-7.6C303.7,27.4,303.2,25.6,300.9,25.6 M272.8,59.6l-7.3,20l0.9,0.2 l7.4-20.2H272.8z"></path> <path class="st0" d="M312,96.8c-2.1,0-3.7-1.6-3.7-3.7c0-2.1,1.6-3.7,3.7-3.7c2,0,3.6,1.6,3.6,3.7C315.6,95.2,314,96.8,312,96.8 M312,88.6c-2.6,0-4.6,2-4.6,4.6c0,2.6,2,4.6,4.6,4.6c2.6,0,4.6-2,4.6-4.6C316.6,90.6,314.6,88.6,312,88.6"></path> <path class="st0" d="M312,93.1c0.6,0,0.9-0.3,0.9-0.8v0c0-0.5-0.3-0.8-0.9-0.8h-1.2v1.6H312z M310.1,90.8h2c0.6,0,1,0.2,1.3,0.5 c0.2,0.3,0.4,0.6,0.4,1v0c0,0.8-0.4,1.2-1.1,1.4l1.2,1.8H313l-1.1-1.7h0h-1v1.7h-0.8V90.8z"></path> </g> </svg> 