<?xml version="1.0" encoding="UTF-8"?> <!-- Generator: Adobe Illustrator 21.0.2, SVG Export Plug-In . SVG Version: 6.00 Build 0) --> <svg xmlns="http://www.w3.org/2000/svg" xmlns:xlink="http://www.w3.org/1999/xlink" id="Layer_1" x="0px" y="0px" viewBox="0 0 24.3 24.2" style="enable-background:new 0 0 24.3 24.2;" xml:space="preserve"> <style type="text/css"> .st0{fill:#E5A33E;} </style> <g> <g> <path class="st0" d="M10.9,14.8c0-0.2,0-0.4,0-0.6c0.4-2.2,2.2-2.4,2.6-4.9c0.1-0.7-0.1-1-0.6-1c-0.5,0-0.8,0.3-1,1l-0.2,1.1h-1.5 l0.2-1c0.3-1.6,1.2-2.5,2.8-2.5s2.2,0.9,1.9,2.5c-0.5,2.6-2.4,3-2.7,4.9c0,0.2-0.1,0.4,0,0.6H10.9z M12.2,15.6L12,17.1h-1.5 l0.3-1.5H12.2z"></path> </g> </g> <g> <path class="st0" d="M21.8,22.8l-5-0.7c-2.1,1.2-4.4,1.8-6.6,1.8c-3.2,0-6-1.2-7.8-3.5c-1.9-2.3-2.7-5.3-2.1-8.6 C1.4,5.3,7.7,0,14.2,0c3.2,0,6,1.2,7.8,3.5c1.9,2.3,2.7,5.3,2.1,8.6c-0.4,2.4-1.6,4.7-3.3,6.7L21.8,22.8z M14.2,1 c-6.1,0-11.9,5-13,11c-0.5,2.9,0.1,5.7,1.9,7.8c1.7,2,4.2,3.1,7.1,3.1c2.1,0,4.3-0.6,6.3-1.8l0.2-0.1l3.7,0.6l-0.7-3l0.2-0.2 c1.7-1.9,2.8-4.1,3.3-6.5c0.5-2.9-0.1-5.7-1.9-7.8C19.6,2.1,17.1,1,14.2,1z"></path> </g> </svg> 