<?xml version="1.0" encoding="UTF-8"?> <!-- Generator: Adobe Illustrator 21.0.2, SVG Export Plug-In . SVG Version: 6.00 Build 0) --> <svg xmlns="http://www.w3.org/2000/svg" xmlns:xlink="http://www.w3.org/1999/xlink" id="Layer_1" x="0px" y="0px" viewBox="0 0 880.1 213.5" style="enable-background:new 0 0 880.1 213.5;" xml:space="preserve"> <style type="text/css"> .st0{fill-rule:evenodd;clip-rule:evenodd;fill:#ED1C24;} .st1{fill-rule:evenodd;clip-rule:evenodd;fill:#FFFFFF;} .st2{fill:#2E3192;} .st3{fill-rule:evenodd;clip-rule:evenodd;fill:#ED1C24;stroke:#ED1B2E;stroke-width:0.2487;} </style> <g> <path class="st0" d="M125.9,0C99.4,0,73.4,11.1,61.2,44.9L0,213.5h739.8l4.2-0.4c29.2-3.4,47.5-22.5,55.5-44.6L860.3,0H125.9z"></path> <path class="st1" d="M136.3,11.2c-20.1,0-45.4,3.7-56.4,33.9L22.3,202.8l705.3,0c21.5,0,45-10.7,54.6-37.4l55.3-154.3H136.3z"></path> <path class="st2" d="M761.2,79.1h38.7l19.6-54.2c0,0-3.7-1.6-10.4-3c-6.7-1.4-16.7-2.9-29.7-2.9c-39.6,0-49,10.6-61.3,45.7 c-9.9,28.1-3.8,38.1,9.1,50.9c8.9,8.9,16,14.1,10.4,28.5l-7.1,18.1c-1.7,4.3-3.2,6.3-6,6.3c-4.2,0-4.5-2.6-2.6-7.3l10.9-28.6h-38.4 l-21,57.5c0,0,5.4,1.4,13.2,2.7c7.7,1.3,18.1,2.7,28.8,2.7c39.7,0,47.8-11.2,59.2-43.6c10.5-29.6,6.9-41.4-8.9-57.1 C754.8,84,752,79.5,756.3,67.8l4.5-12.1c1.7-4.8,3.1-6.2,6.5-6.2c2.7,0,4.1,1.6,2.3,6.5L761.2,79.1z M681.8,118.8 c-1-2.4-2.5-5-4.5-7c0.5-0.1,1.3-0.4,2.4-0.9c10.1-4.1,18-12.3,21.9-22.7l9.3-25.5c9.2-25.1-0.5-41.2-24.4-41.2l-45.9,0 l-62.5,171.6l38.3,0l25.8-71.4l0.4,0c4.5,0,5.8,4.7,2.7,14L625.9,193h37.5l18.1-52.1C684.9,131.1,683.7,123.7,681.8,118.8z M673.7,60.7l-8.9,24.9c-2.3,6.2-5.3,9.4-10.4,9.4l-2.7,0l16.2-44l1.3,0C674.1,51,676.4,53.2,673.7,60.7z M556.9,21.5h-41.1 l-36.8,52l20.2-52.1h-40.5l-62.5,171.6l40.9-0.2l20.3-60.5l-1.1,60.6l39.8,0l-2-86.3L556.9,21.5z M374.8,116.1l-16.5,44.9 c-1.8,4.7-2.9,7.4-7.2,7.4c-3.9,0-3.3-3-2-6.8l38.5-105.8c1.8-4.9,3-6.7,7.1-6.7c3.1,0,3.5,2.2,1.7,7L382.2,95l38.3,0l25.5-70 c0,0-3.3-1.5-9.8-2.8c-6.5-1.4-16.3-2.7-29.9-2.7c-39.2,0-47.5,8.5-58.7,39.2l-35.9,98.9c-8,22-1.7,37.9,31.6,37.8 c35.7,0,44.9-11.4,52.8-33.2l16.8-46.2H374.8z M307.7,21.5L245.2,193h42.4L350,21.5L307.7,21.5z M264.4,21.4l-28,80.7l7.6-80.7 l-43.5,0l-62.7,171.5l30.7-0.1l28.7-80.3l-7.5,80.3l43.2,0l61.9-171.5L264.4,21.4z M134.5,94.7C123.8,84,121,79.5,125.2,67.9 l4.4-12.2c1.8-4.8,3.2-6.2,6.6-6.2c2.7,0,4.1,1.6,2.3,6.6l-8.3,23l38.7,0l19.5-54.2c0,0-3.7-1.6-10.4-3c-6.7-1.4-16.6-2.9-29.7-2.8 c-39.5,0-49,10.6-61.3,45.6c-9.9,28.1-3.8,38.1,9.1,50.9c8.9,8.9,16,14.2,10.4,28.6l-7.1,18.2c-1.7,4.3-3.2,6.2-6,6.2 c-4.2,0-4.4-2.5-2.6-7.3l10.9-28.7l-38.4,0l-21,57.5c0,0,5.4,1.4,13.1,2.7c7.7,1.3,18.1,2.7,28.8,2.6c39.8,0,47.8-11.1,59.2-43.7 C153.9,122.2,150.3,110.4,134.5,94.7z M566.4,120.8l23.3,0l10.7-29.1l-23.3,0l14.8-41.3l29.9,0l10.9-28.8l-70.7,0L499.3,193H570 l10.2-28.5l-29.7,0L566.4,120.8z"></path> <path class="st1" d="M696.5,135.5l-19.2,52.4l2.5,0.6l19.4-53H696.5z M770.2,46.5c-0.5,0-1,0-1.4,0.1c5,0.6,5.8,5.1,4.1,9.7 l-7.4,19.9h2.7l7.4-19.8C777.4,51.3,776.2,46.5,770.2,46.5z M738.4,120c-18.3-18.8-25.5-24.5-15-54.3c11.8-33.6,20.2-43.4,57-43.6 l-1.1,0c-38.1,0-46.6,9.5-58.5,43.7c-10.5,29.8-3.4,35.5,15,54.3c7.4,7.6,8.6,14.4,4.5,25.3l-6.2,16.6c-2.1,5.5-4.1,9-8.4,9.6 c0.5,0,0.9,0.1,1.5,0c5.2,0,7.3-3.6,9.6-9.6l6.3-16.6C747.1,134.3,745.9,127.6,738.4,120z M642.7,24.5l-60.3,165.6l2.6,0 l60.4-165.6L642.7,24.5z M644.8,118.7l-2,0c8.7,0.4,8.6,8.8,5.2,18.7L630,190h2.7l18-52.7C654.1,127.2,654.1,118.6,644.8,118.7z M671.8,48l-2.7,0c6.8,0,10.8,4.1,7.3,13.7l-8.9,24.9C665,93.7,661,97.9,654.3,98h2.7c6.7,0,10.6-4.3,13.2-11.4l8.9-24.9 C682.6,52.1,678.6,48,671.8,48z M460.1,124l-0.8,66.1l2.7,0l0.9-74.2L460.1,124z M517.3,24.5l-42.6,59.4l-3.1,8.1L520,24.5 L517.3,24.5z M400.4,190.1l2.7,0l60.4-165.6l-2.7,0L400.4,190.1z M397.4,46.3c-0.5,0-1,0-1.5,0.1c4.7,0.6,5.4,4.9,3.7,9.7l-13.1,36 l2.7,0l13.1-36C404.1,50.9,403.1,46.3,397.4,46.3z M361.1,162.1c-1.8,4.7-3.5,8.7-8.6,9.2c0.4,0,0.8,0.1,1.3,0.1 c6.2,0,8.1-4.2,10-9.3l15.8-43.1l-2.7,0L361.1,162.1z M350.4,59.8l-35.9,98.9c-7.3,20.1-2.4,33.9,28.8,33.9h1.5 c-30.2-0.4-34.8-14.1-27.6-33.9l35.9-98.9c10.6-29.2,17.7-37.1,54.4-37.3l-1.3,0C368.4,22.5,361.2,30.2,350.4,59.8z M249.4,190.1 l2.7,0l60.3-165.6l-2.7,0L249.4,190.1z M193.1,189.9h2.7l8.4-96.8l-3.6,9.7L193.1,189.9z M142,189.9l2.7,0l60.6-165.6h-2.7 L142,189.9z M266.4,24.3L235.1,113l-1,10.3l35-99H266.4z M65.4,135.5l-19.2,52.4l2.6,0.6l19.3-53L65.4,135.5z M139.1,46.5 c-0.5,0-1,0.1-1.4,0.1c5,0.6,5.8,5,4,9.7l-7.4,19.8l2.7,0l7.4-19.9C146.3,51.3,145.2,46.5,139.1,46.5z M89.7,65.6 c-10.4,29.8-3.3,35.6,15,54.3c7.4,7.6,8.6,14.4,4.5,25.3l-6.2,16.5c-2.1,5.5-4.1,9.1-8.4,9.6c0.5,0.1,0.9,0.1,1.4,0.1 c5.2,0,7.4-3.6,9.6-9.7l6.2-16.6c4.1-11,2.9-17.6-4.5-25.3c-18.4-18.8-25.5-24.5-15-54.3c11.8-33.6,20.2-43.4,56.9-43.6l-1.1,0 C110.2,22,101.7,31.6,89.7,65.6z M503.4,190.1l2.7,0l60.4-165.6l-2.7,0L503.4,190.1z"></path> <path class="st3" d="M871.2,24.9c-5.1,0-9-4-9-9.5c0-5.4,3.9-9.4,9-9.4c5,0,8.9,4,8.9,9.4C880.1,20.9,876.2,24.9,871.2,24.9 M869.3,20.7h-1.6V10.2h3.9c2.4,0,3.6,0.9,3.6,3c0,1.9-1.2,2.7-2.7,2.9l2.9,4.6h-1.7l-2.7-4.6h-1.8V20.7 M871.2,23.1 c4,0,7.2-3.2,7.2-7.6c0-4.3-3.2-7.6-7.2-7.6c-4.1,0-7.2,3.3-7.2,7.6C863.9,19.8,867.1,23.1,871.2,23.1 M871.2,14.8 c1.3,0,2.5-0.1,2.5-1.7c0-1.3-1.1-1.5-2.2-1.5h-2.1v3.3H871.2"></path> </g> </svg> 