<?xml version="1.0" encoding="UTF-8"?> <!-- Generator: Adobe Illustrator 21.0.2, SVG Export Plug-In . SVG Version: 6.00 Build 0) --> <svg xmlns="http://www.w3.org/2000/svg" xmlns:xlink="http://www.w3.org/1999/xlink" id="Layer_1" x="0px" y="0px" viewBox="0 0 666.3 180.3" style="enable-background:new 0 0 666.3 180.3;" xml:space="preserve"> <style type="text/css"> .st0{fill:#441A0D;} .st1{fill:#FFFFFF;} </style> <rect class="st0" width="666.3" height="180.3"></rect> <g> <path class="st1" d="M100.2,82.1l-0.2,1.2c-0.6,3.5-2.1,5.7-4.6,6.8c2.6,1.1,3.3,3.7,2.7,7.2l-0.5,2.7c-0.9,5.2-4.2,8-9.5,8h-8.3 l6-33.8h8C99.2,74.3,101.1,76.9,100.2,82.1z M87.7,92.9l-1.8,10.4h3c1.8,0,2.9-0.8,3.3-3.3l0.5-2.9c0.6-3.1-0.3-4.1-2.7-4.1H87.7z M90.1,79.2l-1.6,8.9h2.1c2,0,3.3-0.9,3.8-3.6l0.3-1.9c0.4-2.4-0.2-3.5-2.1-3.5H90.1z"></path> <path class="st1" d="M119.8,82.1l-0.2,1.2c-0.6,3.5-2.1,5.7-4.6,6.8c2.6,1.1,3.3,3.7,2.7,7.2l-0.5,2.7c-0.9,5.2-4.2,8-9.5,8h-8.3 l6-33.8h8C118.8,74.3,120.7,76.9,119.8,82.1z M107.3,92.9l-1.8,10.4h3c1.8,0,2.9-0.8,3.3-3.3l0.5-2.9c0.6-3.1-0.3-4.1-2.7-4.1 H107.3z M109.7,79.2l-1.6,8.9h2.1c2,0,3.3-0.9,3.8-3.6l0.3-1.9c0.4-2.4-0.2-3.5-2.1-3.5H109.7z"></path> <path class="st1" d="M127.6,88.6h7.3l-0.9,4.8h-7.3l-1.7,9.9h9.2l-0.9,4.8h-14.5l6-33.8h14.5l-0.9,4.8h-9.2L127.6,88.6z"></path> <path class="st1" d="M151.2,112.6l0.8-4.5h-11.3l-0.8,4.5h-5.2l1.6-9.3h2.1c1.1-1.2,1.6-2.4,2.1-4.4l5.6-24.6h14.9l-5.1,29h2.3 l-1.6,9.3H151.2z M145.7,98.9c-0.6,2.6-1.3,3.7-2.3,4.5h6.9l4.3-24.2h-4.5L145.7,98.9z"></path> <path class="st1" d="M165.6,108.1h-5.4l6-33.8h4.7l-3.8,21.4l3.2-7.4l6.8-13.9h5.8l-6,33.8h-4.8l4.2-23.8l-3.6,8.3L165.6,108.1z"></path> <path class="st1" d="M185.2,74.3h16.4l-0.9,4.8h-5.5l-5.1,28.9h-5.3l5.1-28.9h-5.5L185.2,74.3z"></path> <path class="st1" d="M206.7,88.6h7.3l-0.9,4.8h-7.3l-1.7,9.9h9.2l-0.9,4.8h-14.5l6-33.8h14.5l-0.9,4.8h-9.2L206.7,88.6z"></path> <path class="st1" d="M240.7,95.5l-0.8,4.5c-1,5.4-4.2,8.5-9.4,8.5c-5.2,0-7.4-3.1-6.4-8.5l3.1-17.6c1-5.4,4.2-8.5,9.4-8.5 c5.2,0,7.4,3.1,6.4,8.5l-0.6,3.3h-5l0.6-3.6c0.4-2.4-0.5-3.3-2.2-3.3s-2.9,0.9-3.3,3.3l-3.2,18.2c-0.4,2.4,0.5,3.3,2.2,3.3 s2.9-0.9,3.3-3.3l0.9-4.8H240.7z"></path> <path class="st1" d="M262.2,82.1l-0.2,1.2c-0.6,3.5-2.1,5.7-4.6,6.8c2.6,1.1,3.3,3.7,2.7,7.2l-0.5,2.7c-0.9,5.2-4.2,8-9.5,8h-8.3 l6-33.8h8C261.2,74.3,263.1,76.9,262.2,82.1z M249.7,92.9l-1.8,10.4h3c1.8,0,2.9-0.8,3.3-3.3l0.5-2.9c0.6-3.1-0.3-4.1-2.7-4.1 H249.7z M252.1,79.2l-1.6,8.9h2.1c2,0,3.3-0.9,3.8-3.6l0.3-1.9c0.4-2.4-0.2-3.5-2.1-3.5H252.1z"></path> <path class="st1" d="M265.4,82.4c1-5.4,4.3-8.5,9.5-8.5c5.2,0,7.5,3.1,6.6,8.5l-3.1,17.6c-1,5.4-4.3,8.5-9.5,8.5 c-5.2,0-7.5-3.1-6.6-8.5L265.4,82.4z M267.6,100.3c-0.4,2.4,0.5,3.3,2.2,3.3s2.9-0.9,3.3-3.3l3.2-18.2c0.4-2.4-0.5-3.3-2.2-3.3 s-2.9,0.9-3.3,3.3L267.6,100.3z"></path> <path class="st1" d="M292.2,93.6h-4l-2.6,14.5h-5.3l6-33.8h5.3l-2.6,14.5h4l1.1-6.4c1-5.4,4.3-8.5,9.5-8.5c5.2,0,7.5,3.1,6.6,8.5 l-3.1,17.6c-1,5.4-4.3,8.5-9.5,8.5c-5.2,0-7.5-3.1-6.6-8.5L292.2,93.6z M296.3,100.3c-0.4,2.4,0.5,3.3,2.2,3.3 c1.7,0,2.9-0.9,3.3-3.3l3.2-18.2c0.4-2.4-0.5-3.3-2.2-3.3c-1.7,0-2.9,0.9-3.3,3.3L296.3,100.3z"></path> <path class="st1" d="M331.3,112.6l0.8-4.5h-11.3l-0.8,4.5h-5.2l1.6-9.3h2.1c1.1-1.2,1.6-2.4,2.1-4.4l5.6-24.6H341l-5.1,29h2.3 l-1.6,9.3H331.3z M325.8,98.9c-0.6,2.6-1.3,3.7-2.3,4.5h6.9l4.3-24.2h-4.5L325.8,98.9z"></path> <path class="st1" d="M357.5,108.1h-5.4l0.2-6.1h-6.5l-2,6.1h-4.9l11.4-33.8h7.8L357.5,108.1z M347.2,97.4h5.1l0.5-17.1L347.2,97.4z "></path> <path class="st1" d="M364.3,74.3h16.4l-0.9,4.8h-5.5l-5.1,28.9h-5.3l5.1-28.9h-5.5L364.3,74.3z"></path> <path class="st1" d="M390.4,99.5c-2.3,6.1-4.9,9.1-12.2,8.6l0.8-4.7c2.7,0.2,4.3-0.3,5.2-2.7l0.1-0.3l-2.7-26h5.3l0.9,11.5l0.2,7.9 l2.6-7.9l4.5-11.6h5.5L390.4,99.5z"></path> <path class="st1" d="M424.4,82.7l-0.8,4.4c-1,5.4-4.1,8.3-9.4,8.3h-2.5l-2.2,12.7h-5.3l6-33.8h7.8 C423.3,74.3,425.4,77.3,424.4,82.7z M414.6,79.2l-2,11.4h2.5c1.7,0,2.7-0.8,3.2-3.2l0.9-5.1c0.4-2.4-0.4-3.2-2-3.2H414.6z"></path> <path class="st1" d="M426.5,82.4c1-5.4,4.3-8.5,9.5-8.5c5.2,0,7.5,3.1,6.6,8.5l-3.1,17.6c-1,5.4-4.3,8.5-9.5,8.5 c-5.2,0-7.5-3.1-6.6-8.5L426.5,82.4z M428.6,100.3c-0.4,2.4,0.5,3.3,2.2,3.3s2.9-0.9,3.3-3.3l3.2-18.2c0.4-2.4-0.5-3.3-2.2-3.3 s-2.9,0.9-3.3,3.3L428.6,100.3z"></path> <path class="st1" d="M460.3,88l8.7-13.6h5.3L465.4,88l3,20.1h-5.4l-2.2-14.9l-1.8,2.6l-2.2,12.4h-5.3l2.2-12.4l-0.8-2.6l-7.5,15 H440L450,88.2l-4.1-13.8h5.3l3.9,13.6l2.4-13.6h5.3L460.3,88z"></path> <path class="st1" d="M485.1,112.6l0.8-4.5h-11.3l-0.8,4.5h-5.2l1.6-9.3h2.1c1.1-1.2,1.6-2.4,2.1-4.4l5.6-24.6h14.9l-5.1,29h2.3 l-1.6,9.3H485.1z M479.7,98.9c-0.6,2.6-1.3,3.7-2.3,4.5h6.9l4.3-24.2h-4.5L479.7,98.9z"></path> <path class="st1" d="M502.9,88.6h7.3l-0.9,4.8H502l-1.7,9.9h9.2l-0.9,4.8h-14.5l6-33.8h14.5l-0.9,4.8h-9.2L502.9,88.6z"></path> <path class="st1" d="M517.2,108.1h-5.3l6-33.8h5.3l-2.6,14.5h6l2.6-14.5h5.4l-6,33.8h-5.4l2.6-14.5h-6L517.2,108.1z"></path> <path class="st1" d="M537.9,108.1h-5.4l6-33.8h4.7l-3.8,21.4l3.2-7.4l6.8-13.9h5.8l-6,33.8h-4.8l4.2-23.8l-3.6,8.3L537.9,108.1z"></path> <path class="st1" d="M552.1,108.1c0.8-1.3,1-2.5,1.3-4.1l0.9-5.2c0.6-3.5,1.9-6.1,4.8-7.2c-2.2-1.1-2.9-3.4-2.3-6.8l0.5-2.7 c0.9-5.2,3.7-7.8,9.2-7.8h8l-6,33.8h-5.3l2.4-13.7h-1.8c-2.4,0-3.7,1.2-4.2,4.3l-0.9,5.3c-0.5,2.7-0.8,3.3-1.2,4.1H552.1z M565.8,79.2c-1.9,0-2.9,1.1-3.3,3.5l-0.6,3.3c-0.5,2.7,0.6,3.6,2.6,3.6h2.1l1.8-10.4H565.8z"></path> </g> </svg> 